<svg width="76" height="75" viewBox="0 0 76 75" fill="none" xmlns="http://www.w3.org/2000/svg">
<path d="M75.2045 37.2667C75.2045 57.8205 58.5424 74.4826 37.9886 74.4826C17.4348 74.4826 0.772705 57.8205 0.772705 37.2667C0.772705 16.7129 17.4348 0.0507812 37.9886 0.0507812C58.5424 0.0507812 75.2045 16.7129 75.2045 37.2667ZM10.0767 37.2667C10.0767 52.682 22.5733 65.1786 37.9886 65.1786C53.4039 65.1786 65.9005 52.682 65.9005 37.2667C65.9005 21.8514 53.4039 9.35476 37.9886 9.35476C22.5733 9.35476 10.0767 21.8514 10.0767 37.2667Z" fill="#EAECF0"/>
<path d="M37.9886 0.0507813C45.8478 0.0507813 53.5053 2.53885 59.8636 7.15839C66.2218 11.7779 70.9544 18.2918 73.383 25.7663L64.5344 28.6414C62.713 23.0355 59.1635 18.1501 54.3948 14.6855C49.6261 11.2208 43.883 9.35476 37.9886 9.35476V0.0507813Z" fill="#0665E4"/>
<path d="M73.383 25.7663C75.504 32.2939 75.7785 39.2808 74.1762 45.9546C72.574 52.6284 69.1574 58.7291 64.3042 63.5823C59.4511 68.4355 53.3503 71.8521 46.6765 73.4543C40.0027 75.0566 33.0158 74.782 26.4883 72.6611L29.3634 63.8125C34.259 65.4032 39.4992 65.6091 44.5045 64.4074C49.5099 63.2057 54.0854 60.6433 57.7253 57.0034C61.3652 53.3635 63.9277 48.788 65.1293 43.7826C66.331 38.7772 66.1251 33.5371 64.5344 28.6414L73.383 25.7663Z" fill="#1476F9"/>
<path d="M26.4883 72.6611C19.0137 70.2325 12.4998 65.4999 7.88031 59.1416L15.4074 53.6729C18.872 58.4416 23.7574 61.991 29.3634 63.8125L26.4883 72.6611Z" fill="#3899FA"/>
<path d="M7.88031 59.1416C2.31648 51.4837 -0.12021 41.9934 1.06616 32.6023L10.2968 33.7684C9.407 40.8117 11.2345 47.9294 15.4074 53.6729L7.88031 59.1416Z" fill="#84CAFF"/>
<path d="M1.05011 32.7312C1.91077 25.7217 4.74808 19.1018 9.23063 13.6446C13.7132 8.18746 19.6559 4.11837 26.3648 1.91262L29.2707 10.7511C24.2391 12.4054 19.782 15.4573 16.4201 19.5501C13.0582 23.643 10.9302 28.608 10.2847 33.8651L1.05011 32.7312Z" fill="#95C7F9"/>
<path d="M26.1798 1.97396C30.0693 0.672565 34.1471 0.0230531 38.2484 0.0516883L38.1835 9.35544C35.1075 9.33396 32.0491 9.8211 29.132 10.7971L26.1798 1.97396Z" fill="#EAECF0"/>
</svg>
