<svg width="19" height="20" viewBox="0 0 19 20" fill="none" xmlns="http://www.w3.org/2000/svg">
<path d="M9.32099 10.9653C9.74919 10.9653 10.0963 10.6182 10.0963 10.19C10.0963 9.76175 9.74919 9.41463 9.32099 9.41463C8.89278 9.41463 8.54565 9.76175 8.54565 10.19C8.54565 10.6182 8.89278 10.9653 9.32099 10.9653Z" stroke="#98A2B3" stroke-width="1.55066" stroke-linecap="round" stroke-linejoin="round"/>
<path d="M9.32099 5.53797C9.74919 5.53797 10.0963 5.19084 10.0963 4.76264C10.0963 4.33443 9.74919 3.9873 9.32099 3.9873C8.89278 3.9873 8.54565 4.33443 8.54565 4.76264C8.54565 5.19084 8.89278 5.53797 9.32099 5.53797Z" stroke="#98A2B3" stroke-width="1.55066" stroke-linecap="round" stroke-linejoin="round"/>
<path d="M9.32099 16.3926C9.74919 16.3926 10.0963 16.0455 10.0963 15.6173C10.0963 15.1891 9.74919 14.8419 9.32099 14.8419C8.89278 14.8419 8.54565 15.1891 8.54565 15.6173C8.54565 16.0455 8.89278 16.3926 9.32099 16.3926Z" stroke="#98A2B3" stroke-width="1.55066" stroke-linecap="round" stroke-linejoin="round"/>
</svg>
