<svg width="214" height="51" viewBox="0 0 214 51" fill="none" xmlns="http://www.w3.org/2000/svg">
<path d="M0.0424805 13.123H20.7064V19.0116H6.88014V25.008H18.7435V30.8749H6.88014V36.591H20.9005V42.458H0.0424805V13.123Z" fill="#252627"/>
<path d="M22.7698 31.2854C22.7698 29.6461 23.0502 28.1039 23.611 26.6587C24.1718 25.2135 24.9699 23.9517 26.0052 22.8732C27.0406 21.7947 28.2988 20.9427 29.7799 20.3172C31.2611 19.6917 32.922 19.3789 34.7625 19.3789C36.2437 19.3789 37.5739 19.6197 38.753 20.1014C39.9322 20.5832 40.9316 21.1548 41.7513 21.8162L41.7248 19.8452H47.7045V43.1641H41.7555L41.7296 40.7545C40.8956 41.416 39.8926 41.984 38.7206 42.4586C37.5487 42.9331 36.2294 43.1704 34.7625 43.1704C32.9363 43.1704 31.2827 42.8576 29.8016 42.2321C28.3204 41.6066 27.0586 40.7581 26.0161 39.6868C24.9735 38.6155 24.1718 37.3573 23.611 35.9121C23.0502 34.4669 22.7698 32.9247 22.7698 31.2854ZM29.4348 31.2637C29.4348 32.1985 29.593 33.0469 29.9093 33.8091C30.2257 34.5712 30.6536 35.2255 31.1928 35.7719C31.7321 36.3183 32.3648 36.7389 33.0909 37.0337C33.8171 37.3285 34.59 37.476 35.4096 37.476C36.2293 37.476 37.0022 37.3285 37.7285 37.0337C38.4546 36.7389 39.0873 36.3219 39.6266 35.7827C40.1658 35.2435 40.59 34.5892 40.8992 33.8199C41.2084 33.0505 41.363 32.1985 41.363 31.2637C41.363 30.3435 41.2048 29.5059 40.8884 28.7509C40.5721 27.996 40.1443 27.3489 39.605 26.8096C39.0658 26.2704 38.4331 25.8534 37.7069 25.5586C36.9807 25.2638 36.2077 25.1164 35.3881 25.1164C34.5541 25.1164 33.774 25.2638 33.0477 25.5586C32.3216 25.8534 31.6925 26.2704 31.1605 26.8096C30.6283 27.3489 30.2077 27.996 29.8986 28.7509C29.5894 29.5059 29.4348 30.3435 29.4348 31.2637Z" fill="#252627"/>
<path d="M57.1882 35.47C57.2457 36.1458 57.5943 36.6922 58.2342 37.1092C58.8742 37.5263 59.683 37.7348 60.6608 37.7348C61.9263 37.7348 62.8394 37.5694 63.4003 37.2387C63.9611 36.9079 64.2415 36.4405 64.2415 35.8366C64.2415 35.4771 64.1121 35.1859 63.8532 34.963C63.5944 34.7402 63.2133 34.5425 62.71 34.3699C62.2067 34.1974 61.5883 34.0392 60.8549 33.8953C60.1216 33.7515 59.2732 33.5718 58.3097 33.3561C57.8783 33.2698 57.4038 33.1656 56.8861 33.0434C56.3685 32.9211 55.8544 32.7557 55.3439 32.5472C54.8334 32.3388 54.3409 32.0799 53.8663 31.7707C53.3918 31.4615 52.9712 31.0768 52.6045 30.6166C52.2378 30.1566 51.9466 29.6065 51.7309 28.9666C51.5152 28.3267 51.4074 27.5754 51.4074 26.7126C51.4074 25.5766 51.6123 24.552 52.0221 23.6389C52.4319 22.7257 53.0539 21.9564 53.888 21.3309C54.722 20.7054 55.7717 20.2236 57.0371 19.8857C58.3026 19.5479 59.7909 19.3789 61.502 19.3789C62.8969 19.3789 64.1516 19.5586 65.266 19.9181C66.3805 20.2776 67.326 20.7881 68.1025 21.4496C68.879 22.111 69.4722 22.8983 69.882 23.8115C70.2918 24.7245 70.4968 25.7275 70.4968 26.8205L63.81 26.7988C63.7669 26.2524 63.5081 25.7815 63.0335 25.386C62.559 24.9906 61.8903 24.7928 61.0275 24.7928C60.0065 24.7928 59.2516 24.9798 58.7627 25.3537C58.2738 25.7276 58.0366 26.159 58.0509 26.6479C58.0509 26.9355 58.1336 27.1764 58.2989 27.3705C58.4643 27.5646 58.7232 27.73 59.0754 27.8665C59.4278 28.0031 59.8772 28.1218 60.4236 28.2224C60.9701 28.3231 61.6244 28.4238 62.3864 28.5244C63.5656 28.7258 64.6873 28.9667 65.7513 29.2471C66.8155 29.5275 67.7537 29.9157 68.5662 30.4118C69.3787 30.9079 70.0222 31.555 70.4968 32.3531C70.9713 33.1512 71.2086 34.1614 71.2086 35.3836C71.2086 36.7209 70.9425 37.8821 70.4104 38.8672C69.8784 39.8522 69.1342 40.6682 68.1779 41.3153C67.2217 41.9624 66.0821 42.4406 64.7592 42.7498C63.4362 43.0589 61.9838 43.2134 60.402 43.2134C58.6764 43.2134 57.1989 42.9834 55.9694 42.5233C54.7399 42.0631 53.7297 41.4627 52.9389 40.7221C52.148 39.9816 51.5656 39.1476 51.1917 38.2201C50.8178 37.2926 50.6309 36.3687 50.6309 35.4483L57.1882 35.47Z" fill="#252627"/>
<path d="M72.377 44.9066H76.1085C76.6262 44.9066 77.0756 44.8513 77.4567 44.7408C77.8377 44.6302 78.1685 44.4608 78.4489 44.2325C78.7293 44.004 78.9702 43.713 79.1715 43.3593C79.3728 43.0056 79.5597 42.5856 79.7322 42.0992L80.0343 41.2371L71.7515 19.773H78.7401L83.5933 34.1414L88.3386 19.7951L95.4135 19.751L86.8287 42.254C86.1385 44.0519 85.4375 45.4924 84.7257 46.5755C84.0139 47.6587 83.241 48.4877 82.407 49.0624C81.5729 49.6371 80.6526 50.0166 79.646 50.2008C78.6394 50.385 77.5034 50.4772 76.2379 50.4772H72.377V44.9066Z" fill="#252627"/>
<path d="M103.592 33.3339C103.592 34.5418 104.088 35.5052 105.081 36.2242C106.073 36.9432 107.475 37.3027 109.287 37.3027C110.279 37.3027 111.12 37.2272 111.81 37.0762C112.501 36.9252 113.061 36.7131 113.493 36.4399C113.924 36.1667 114.241 35.8323 114.442 35.437C114.643 35.0415 114.744 34.5921 114.744 34.0888C114.744 33.3842 114.579 32.8162 114.248 32.3848C113.917 31.9534 113.443 31.5939 112.824 31.3063C112.206 31.0186 111.455 30.7598 110.57 30.5298C109.686 30.2997 108.683 30.0265 107.561 29.7101C107.015 29.5663 106.393 29.4081 105.695 29.2356C104.998 29.063 104.29 28.8473 103.571 28.5885C102.852 28.3296 102.151 28.0169 101.468 27.6502C100.785 27.2835 100.174 26.8342 99.6344 26.3021C99.0952 25.77 98.6638 25.1409 98.3402 24.4147C98.0166 23.6886 97.8548 22.8366 97.8548 21.8587C97.8548 20.392 98.0921 19.0726 98.5667 17.9006C99.0412 16.7287 99.771 15.733 100.756 14.9133C101.741 14.0937 102.992 13.4681 104.509 13.0367C106.026 12.6053 107.834 12.3896 109.934 12.3896C111.659 12.3896 113.187 12.6089 114.518 13.0474C115.848 13.486 116.969 14.108 117.882 14.9133C118.796 15.7185 119.489 16.6927 119.964 17.8359C120.438 18.9791 120.676 20.2553 120.676 21.6646H113.816C113.816 21.2332 113.737 20.8126 113.579 20.4028C113.421 19.9929 113.162 19.6334 112.803 19.3242C112.443 19.0151 111.979 18.7671 111.412 18.5801C110.843 18.3932 110.142 18.2997 109.308 18.2997C108.388 18.2997 107.63 18.3788 107.033 18.537C106.436 18.6951 105.965 18.9108 105.62 19.1841C105.275 19.4573 105.034 19.7665 104.897 20.1116C104.761 20.4567 104.692 20.809 104.692 21.1684C104.692 21.6718 104.854 22.1068 105.178 22.4735C105.501 22.8401 105.943 23.1565 106.504 23.4226C107.065 23.6885 107.727 23.915 108.489 24.102C109.251 24.2889 110.078 24.4615 110.969 24.6197C111.99 24.8641 112.964 25.1229 113.892 25.3962C114.819 25.6694 115.679 25.9857 116.47 26.3452C117.26 26.7047 117.976 27.1146 118.616 27.5747C119.256 28.0348 119.802 28.5777 120.255 29.2032C120.708 29.8287 121.057 30.5441 121.301 31.3494C121.546 32.1547 121.668 33.0751 121.668 34.1104C121.668 35.5915 121.355 36.8965 120.73 38.0253C120.104 39.1541 119.234 40.1032 118.12 40.8725C117.005 41.6418 115.682 42.2206 114.151 42.6089C112.619 42.9971 110.955 43.1912 109.157 43.1912C106.914 43.1912 105.009 42.9 103.441 42.3177C101.874 41.7353 100.598 40.9767 99.6127 40.042C98.6278 39.1074 97.9088 38.0541 97.4558 36.8821C97.0028 35.7101 96.7764 34.5274 96.7764 33.3339H103.592Z" fill="#252627"/>
<path d="M123.709 31.2854C123.709 29.6461 123.99 28.1039 124.551 26.6587C125.112 25.2135 125.91 23.9517 126.945 22.8732C127.98 21.7947 129.239 20.9427 130.72 20.3172C132.201 19.6917 133.862 19.3789 135.702 19.3789C137.183 19.3789 138.514 19.6197 139.693 20.1014C140.872 20.5832 141.871 21.1548 142.691 21.8162L142.664 19.8452H148.644V43.1641H142.695L142.669 40.7545C141.835 41.416 140.832 41.984 139.66 42.4586C138.488 42.9331 137.169 43.1704 135.702 43.1704C133.876 43.1704 132.222 42.8576 130.741 42.2321C129.26 41.6066 127.998 40.7581 126.956 39.6868C125.913 38.6155 125.112 37.3573 124.551 35.9121C123.99 34.4669 123.709 32.9247 123.709 31.2854ZM130.375 31.2637C130.375 32.1985 130.533 33.0469 130.849 33.8091C131.165 34.5712 131.593 35.2255 132.133 35.7719C132.672 36.3183 133.304 36.7389 134.031 37.0337C134.757 37.3285 135.53 37.476 136.349 37.476C137.169 37.476 137.942 37.3285 138.668 37.0337C139.394 36.7389 140.027 36.3219 140.566 35.7827C141.106 35.2435 141.53 34.5892 141.839 33.8199C142.148 33.0505 142.303 32.1985 142.303 31.2637C142.303 30.3435 142.144 29.5059 141.828 28.7509C141.512 27.996 141.084 27.3489 140.545 26.8096C140.005 26.2704 139.373 25.8534 138.647 25.5586C137.92 25.2638 137.147 25.1164 136.328 25.1164C135.494 25.1164 134.714 25.2638 133.987 25.5586C133.261 25.8534 132.632 26.2704 132.1 26.8096C131.568 27.3489 131.147 27.996 130.838 28.7509C130.529 29.5059 130.375 30.3435 130.375 31.2637Z" fill="#252627"/>
<path d="M153.383 12.0664H160.048V42.4582H153.383V12.0664Z" fill="#252627"/>
<path d="M163.406 31.2854C163.406 29.6461 163.707 28.1039 164.311 26.6587C164.915 25.2135 165.767 23.9517 166.867 22.8732C167.968 21.7947 169.28 20.9427 170.804 20.3172C172.328 19.6917 174.011 19.3789 175.851 19.3789C177.692 19.3789 179.378 19.6917 180.909 20.3172C182.441 20.9427 183.757 21.7947 184.857 22.8732C185.957 23.9517 186.812 25.2135 187.424 26.6587C188.035 28.1039 188.34 29.6461 188.34 31.2854C188.34 32.9247 188.035 34.4669 187.424 35.9121C186.812 37.3573 185.957 38.6191 184.857 39.6976C183.757 40.7761 182.437 41.6245 180.899 42.2428C179.36 42.8612 177.663 43.1704 175.808 43.1704C173.996 43.1704 172.328 42.8576 170.804 42.2321C169.28 41.6066 167.971 40.7581 166.878 39.6868C165.785 38.6155 164.933 37.3573 164.322 35.9121C163.711 34.4669 163.406 32.9247 163.406 31.2854ZM170.071 31.2637C170.071 32.1985 170.222 33.0433 170.524 33.7982C170.826 34.5532 171.243 35.2039 171.775 35.7503C172.307 36.2968 172.925 36.7174 173.63 37.0122C174.334 37.3069 175.089 37.4543 175.894 37.4543C176.714 37.4543 177.476 37.3069 178.181 37.0122C178.885 36.7174 179.497 36.3004 180.014 35.7612C180.532 35.2219 180.942 34.5712 181.244 33.8091C181.546 33.0469 181.697 32.1985 181.697 31.2637C181.697 30.3435 181.546 29.5059 181.244 28.7509C180.942 27.996 180.528 27.3489 180.003 26.8096C179.479 26.2704 178.864 25.8534 178.159 25.5586C177.455 25.2638 176.692 25.1164 175.873 25.1164C175.068 25.1164 174.313 25.2638 173.608 25.5586C172.903 25.8534 172.289 26.2704 171.764 26.8096C171.239 27.3489 170.826 27.996 170.524 28.7509C170.222 29.5059 170.071 30.3435 170.071 31.2637Z" fill="#252627"/>
<path d="M191.676 19.9481H198.018V22.3683C198.358 21.8825 198.757 21.4837 199.215 21.1718C199.812 20.7311 200.355 20.4288 200.843 20.2651C201.447 20.0122 202.101 19.8031 202.806 19.6378C203.511 19.4724 204.251 19.3896 205.028 19.3896C206.552 19.3896 207.875 19.6413 208.997 20.1446C210.118 20.648 211.046 21.3777 211.779 22.3339C212.512 23.2902 213.059 24.4514 213.418 25.8175C213.778 27.1835 213.958 28.7293 213.958 30.4549V42.4478H207.314V30.606C207.314 29.6713 207.214 28.8804 207.012 28.2333C206.811 27.5862 206.527 27.0577 206.16 26.6479C205.794 26.2381 205.355 25.9397 204.845 25.7528C204.334 25.5658 203.77 25.4723 203.151 25.4723C202.518 25.4723 201.911 25.5909 201.329 25.8282C200.746 26.0655 200.232 26.4286 199.786 26.9176C199.341 27.4065 198.985 28.0212 198.719 28.7618C198.453 29.5023 198.32 30.3686 198.32 31.3609V42.4478H191.676V19.9481Z" fill="#252627"/>
<path d="M83.5801 15.2232C83.4653 15.2224 83.3902 15.1575 83.3734 15.1421L76.7365 8.4995C75.1565 7.06841 74.6133 4.88822 75.3499 3.07756C76.2079 0.967427 78.3735 0.416862 78.5195 0.382636C80.3805 -0.0518786 82.3694 0.757924 83.5822 2.41015C84.7942 0.757924 86.7838 -0.0518786 88.6442 0.382636C88.7383 0.404562 90.9463 0.942559 91.8144 3.07756C92.5562 4.90212 91.9991 7.08004 90.4279 8.4995L83.791 15.1421C83.7742 15.1575 83.6976 15.2239 83.5801 15.2232Z" fill="#FD084A"/>
</svg>
