<svg width="28" height="28" viewBox="0 0 28 28" fill="none" xmlns="http://www.w3.org/2000/svg">
<g id="ic/Bold Duotone / Essentional, UI / Check Circle">
<path id="Vector" opacity="0.5" d="M25.6668 14.0007C25.6668 20.444 20.4435 25.6673 14.0002 25.6673C7.55684 25.6673 2.3335 20.444 2.3335 14.0007C2.3335 7.55733 7.55684 2.33398 14.0002 2.33398C20.4435 2.33398 25.6668 7.55733 25.6668 14.0007Z" fill="#3D8CF5"/>
<path id="Vector_2" d="M18.7019 10.4653C19.0436 10.807 19.0436 11.361 18.7019 11.7027L12.8686 17.536C12.5268 17.8777 11.9728 17.8777 11.6311 17.536L9.29779 15.2027C8.95608 14.861 8.95608 14.307 9.29779 13.9653C9.63949 13.6236 10.1935 13.6236 10.5352 13.9653L12.2498 15.6799L14.8571 13.0726L17.4645 10.4653C17.8062 10.1236 18.3602 10.1236 18.7019 10.4653Z" fill="#3D8CF5"/>
</g>
</svg>
