<svg width="28" height="28" viewBox="0 0 28 28" fill="none" xmlns="http://www.w3.org/2000/svg">
<g id="ic/Bold Duotone / Security / Key">
<path id="Vector" opacity="0.5" fill-rule="evenodd" clip-rule="evenodd" d="M25.6666 9.67632C25.6666 13.7314 22.3659 17.0187 18.2942 17.0187C17.5512 17.0187 15.8596 16.8479 15.0366 16.1649L14.0078 17.1895C13.403 17.7918 13.5663 17.9692 13.8354 18.2613C13.9476 18.3832 14.0783 18.5251 14.1793 18.7262C14.1793 18.7262 15.0365 19.9215 14.1793 21.1167C13.6649 21.7997 12.2247 22.7559 10.5788 21.1167L10.2359 21.4582C10.2359 21.4582 11.2646 22.6535 10.4073 23.8488C9.89296 24.5318 8.52134 25.2148 7.32118 24.0195L6.12101 25.2148C5.29804 26.0344 4.29221 25.5563 3.89217 25.2148L2.86345 24.1903C1.90332 23.234 2.4634 22.1981 2.86345 21.7997L11.779 12.9206C11.779 12.9206 10.9217 11.5546 10.9217 9.67632C10.9217 5.62126 14.2225 2.33398 18.2942 2.33398C22.3659 2.33398 25.6666 5.62126 25.6666 9.67632Z" fill="#3D8CF5"/>
<path id="Vector_2" d="M20.8662 9.67652C20.8662 11.0911 19.7148 12.2378 18.2944 12.2378C16.8741 12.2378 15.7227 11.0911 15.7227 9.67652C15.7227 8.26196 16.8741 7.11523 18.2944 7.11523C19.7148 7.11523 20.8662 8.26196 20.8662 9.67652Z" fill="#3D8CF5"/>
</g>
</svg>
