<svg width="720" height="900" viewBox="0 0 720 900" fill="none" xmlns="http://www.w3.org/2000/svg">
<g opacity="0.72">
<path d="M0.707001 52.1983C0.707001 52.1983 13.4327 42.654 17.0854 27.1004C20.7382 11.5468 34.2887 1.17773 34.2887 1.17773" stroke="white" stroke-opacity="0.1" stroke-width="2.35661" stroke-miterlimit="10"/>
<path d="M0.707001 94.6173C0.707001 94.6173 44.3043 81.1846 55.8516 47.3673C66.9277 14.4926 111.703 1.17773 111.703 1.17773" stroke="white" stroke-opacity="0.1" stroke-width="2.35661" stroke-miterlimit="10"/>
<path d="M0.707001 137.036C0.707001 137.036 75.1758 119.715 94.5 67.7519C113.117 17.674 189.118 1.17773 189.118 1.17773" stroke="white" stroke-opacity="0.1" stroke-width="2.35661" stroke-miterlimit="10"/>
<path d="M0.707001 179.573C0.707001 179.573 105.93 158.246 133.266 88.1366C159.307 20.7376 266.415 1.17773 266.415 1.17773" stroke="white" stroke-opacity="0.1" stroke-width="2.35661" stroke-miterlimit="10"/>
<path d="M0.707001 221.992C0.707001 221.992 136.801 196.776 171.915 108.521C205.496 23.919 343.829 1.17773 343.829 1.17773" stroke="white" stroke-opacity="0.1" stroke-width="2.35661" stroke-miterlimit="10"/>
<path d="M0.707001 264.411C0.707001 264.411 167.673 235.307 210.681 128.788C251.686 27.1004 421.244 1.17773 421.244 1.17773" stroke="white" stroke-opacity="0.1" stroke-width="2.35661" stroke-miterlimit="10"/>
<path d="M0.707001 306.948C0.707001 306.948 198.426 273.837 249.329 149.291C297.875 30.164 498.658 1.17773 498.658 1.17773" stroke="white" stroke-opacity="0.1" stroke-width="2.35661" stroke-miterlimit="10"/>
<path d="M0.707001 349.367C0.707001 349.367 229.298 312.368 288.095 169.557C344.065 33.3454 576.073 1.17773 576.073 1.17773" stroke="white" stroke-opacity="0.1" stroke-width="2.35661" stroke-miterlimit="10"/>
<path d="M0.707001 391.786C0.707001 391.786 260.17 350.898 326.862 189.942C390.254 36.5269 653.37 1.17773 653.37 1.17773" stroke="white" stroke-opacity="0.1" stroke-width="2.35661" stroke-miterlimit="10"/>
<path d="M0.707001 434.322C0.707001 434.322 290.923 389.547 365.51 210.327C436.562 39.5905 730.784 1.17773 730.784 1.17773" stroke="white" stroke-opacity="0.1" stroke-width="2.35661" stroke-miterlimit="10"/>
<path d="M0.707001 476.741C0.707001 476.741 321.795 427.96 404.276 230.711C482.751 42.7719 808.199 1.17773 808.199 1.17773" stroke="white" stroke-opacity="0.1" stroke-width="2.35661" stroke-miterlimit="10"/>
<path d="M0.707001 519.16C0.707001 519.16 352.666 466.49 442.925 250.978C528.941 45.9533 885.613 1.17773 885.613 1.17773" stroke="white" stroke-opacity="0.1" stroke-width="2.35661" stroke-miterlimit="10"/>
<path d="M0.707001 561.697C0.707001 561.697 383.42 505.138 481.691 271.481C575.13 49.0169 962.91 1.17773 962.91 1.17773" stroke="white" stroke-opacity="0.1" stroke-width="2.35661" stroke-miterlimit="10"/>
<path d="M0.707001 604.116C0.707001 604.116 414.292 543.669 520.339 291.865C621.32 52.1983 1040.32 1.17773 1040.32 1.17773" stroke="white" stroke-opacity="0.1" stroke-width="2.35661" stroke-miterlimit="10"/>
<path d="M0.707001 646.653C0.707001 646.653 445.163 582.2 559.105 312.25C667.509 55.3797 1117.74 1.17773 1117.74 1.17773" stroke="white" stroke-opacity="0.1" stroke-width="2.35661" stroke-miterlimit="10"/>
<path d="M0.707001 689.072C0.707001 689.072 475.917 620.73 597.754 332.635C713.699 58.4433 1195.15 1.17773 1195.15 1.17773" stroke="white" stroke-opacity="0.1" stroke-width="2.35661" stroke-miterlimit="10"/>
<path d="M0.707001 731.491C0.707001 731.491 506.789 659.261 636.52 352.902C759.888 61.6247 1272.57 1.17773 1272.57 1.17773" stroke="white" stroke-opacity="0.1" stroke-width="2.35661" stroke-miterlimit="10"/>
<path d="M0.707001 774.028C0.707001 774.028 537.66 697.791 675.286 373.404C806.078 64.8062 1349.87 1.17773 1349.87 1.17773" stroke="white" stroke-opacity="0.1" stroke-width="2.35661" stroke-miterlimit="10"/>
<path d="M0.707001 816.446C0.707001 816.446 568.414 736.322 713.935 393.671C852.268 67.8698 1427.28 1.17773 1427.28 1.17773" stroke="white" stroke-opacity="0.1" stroke-width="2.35661" stroke-miterlimit="10"/>
<path d="M0.707001 858.865C0.707001 858.865 599.286 774.852 752.701 414.056C898.457 71.0512 1504.69 1.17773 1504.69 1.17773" stroke="white" stroke-opacity="0.1" stroke-width="2.35661" stroke-miterlimit="10"/>
<path d="M0.707001 901.402C0.707001 901.402 630.157 813.501 791.349 434.44C944.646 74.2326 1582.11 1.17773 1582.11 1.17773" stroke="white" stroke-opacity="0.1" stroke-width="2.35661" stroke-miterlimit="10"/>
<path d="M0.707001 943.821C0.707001 943.821 660.911 851.913 830.115 454.825C990.836 77.2962 1659.41 1.17773 1659.41 1.17773" stroke="white" stroke-opacity="0.1" stroke-width="2.35661" stroke-miterlimit="10"/>
<path d="M1693.11 340.883C1693.11 340.883 1279.52 401.33 1173.47 653.133C1072.49 892.8 653.37 943.821 653.37 943.821" stroke="white" stroke-opacity="0.1" stroke-width="2.35661" stroke-miterlimit="10"/>
<path d="M1693.11 298.346C1693.11 298.346 1248.65 362.799 1134.71 632.748C1026.3 889.619 576.073 943.821 576.073 943.821" stroke="white" stroke-opacity="0.1" stroke-width="2.35661" stroke-miterlimit="10"/>
<path d="M1693.11 255.928C1693.11 255.928 1217.9 324.269 1096.06 612.365C980.113 886.556 498.658 943.822 498.658 943.822" stroke="white" stroke-opacity="0.1" stroke-width="2.35661" stroke-miterlimit="10"/>
<path d="M1693.11 213.508C1693.11 213.508 1187.02 285.738 1057.29 592.097C933.924 883.374 421.244 943.821 421.244 943.821" stroke="white" stroke-opacity="0.1" stroke-width="2.35661" stroke-miterlimit="10"/>
<path d="M1693.11 170.971C1693.11 170.971 1156.15 247.207 1018.53 571.594C887.734 880.192 343.829 943.821 343.829 943.821" stroke="white" stroke-opacity="0.1" stroke-width="2.35661" stroke-miterlimit="10"/>
<path d="M1693.11 128.553C1693.11 128.553 1125.4 208.677 979.878 551.328C841.545 877.129 266.415 943.821 266.415 943.821" stroke="white" stroke-opacity="0.1" stroke-width="2.35661" stroke-miterlimit="10"/>
<path d="M1693.11 86.1328C1693.11 86.1328 1094.53 170.146 941.112 530.943C795.355 873.947 189.118 943.82 189.118 943.82" stroke="white" stroke-opacity="0.1" stroke-width="2.35661" stroke-miterlimit="10"/>
<path d="M1693.11 43.5977C1693.11 43.5977 1063.66 131.499 902.463 510.56C749.048 870.767 111.703 943.822 111.703 943.822" stroke="white" stroke-opacity="0.1" stroke-width="2.35661" stroke-miterlimit="10"/>
<path d="M1693.11 1.17773C1693.11 1.17773 1032.9 93.0855 863.697 490.174C702.858 867.703 34.2887 943.821 34.2887 943.821" stroke="white" stroke-opacity="0.1" stroke-width="2.35661" stroke-miterlimit="10"/>
</g>
</svg>
