<svg xmlns="http://www.w3.org/2000/svg" width="214" height="68" viewBox="0 0 214 68" fill="none">
  <path d="M0.0424194 13.123H20.7064V19.0116H6.88008V25.008H18.7434V30.8749H6.88008V36.591H20.9005V42.458H0.0424194V13.123Z" fill="#252627"/>
  <path d="M22.7696 31.2854C22.7696 29.6461 23.05 28.1039 23.6108 26.6587C24.1716 25.2135 24.9697 23.9517 26.0051 22.8732C27.0404 21.7947 28.2986 20.9427 29.7797 20.3172C31.2609 19.6917 32.9218 19.3789 34.7623 19.3789C36.2435 19.3789 37.5737 19.6197 38.7528 20.1014C39.932 20.5832 40.9314 21.1548 41.7511 21.8162L41.7246 19.8452H47.7043V43.1641H41.7554L41.7294 40.7545C40.8954 41.416 39.8924 41.984 38.7204 42.4586C37.5485 42.9331 36.2292 43.1704 34.7623 43.1704C32.9361 43.1704 31.2825 42.8576 29.8014 42.2321C28.3202 41.6066 27.0584 40.7581 26.0159 39.6868C24.9733 38.6155 24.1716 37.3573 23.6108 35.9121C23.05 34.4669 22.7696 32.9247 22.7696 31.2854ZM29.4347 31.2637C29.4347 32.1985 29.5928 33.0469 29.9091 33.8091C30.2256 34.5712 30.6534 35.2255 31.1926 35.7719C31.7319 36.3183 32.3646 36.7389 33.0907 37.0337C33.8169 37.3285 34.5898 37.476 35.4094 37.476C36.2291 37.476 37.002 37.3285 37.7283 37.0337C38.4544 36.7389 39.0871 36.3219 39.6264 35.7827C40.1656 35.2435 40.5898 34.5892 40.899 33.8199C41.2082 33.0505 41.3628 32.1985 41.3628 31.2637C41.3628 30.3435 41.2046 29.5059 40.8882 28.7509C40.5719 27.996 40.1441 27.3489 39.6048 26.8096C39.0656 26.2704 38.4329 25.8534 37.7067 25.5586C36.9805 25.2638 36.2076 25.1164 35.3879 25.1164C34.5539 25.1164 33.7738 25.2638 33.0475 25.5586C32.3214 25.8534 31.6923 26.2704 31.1603 26.8096C30.6282 27.3489 30.2076 27.996 29.8984 28.7509C29.5892 29.5059 29.4347 30.3435 29.4347 31.2637Z" fill="#252627"/>
  <path d="M57.1882 35.47C57.2457 36.1458 57.5944 36.6922 58.2343 37.1092C58.8742 37.5263 59.6831 37.7348 60.6609 37.7348C61.9264 37.7348 62.8395 37.5694 63.4003 37.2387C63.9611 36.9079 64.2415 36.4405 64.2415 35.8366C64.2415 35.4771 64.1121 35.1859 63.8533 34.963C63.5944 34.7402 63.2134 34.5425 62.71 34.3699C62.2067 34.1974 61.5884 34.0392 60.855 33.8953C60.1216 33.7515 59.2732 33.5718 58.3098 33.3561C57.8784 33.2698 57.4039 33.1656 56.8862 33.0434C56.3685 32.9211 55.8545 32.7557 55.344 32.5472C54.8335 32.3388 54.3409 32.0799 53.8664 31.7707C53.3919 31.4615 52.9712 31.0768 52.6046 30.6166C52.2379 30.1566 51.9467 29.6065 51.731 28.9666C51.5153 28.3267 51.4074 27.5754 51.4074 26.7126C51.4074 25.5766 51.6123 24.552 52.0222 23.6389C52.432 22.7257 53.054 21.9564 53.888 21.3309C54.722 20.7054 55.7717 20.2236 57.0371 19.8857C58.3026 19.5479 59.7909 19.3789 61.5021 19.3789C62.897 19.3789 64.1517 19.5586 65.2661 19.9181C66.3806 20.2776 67.3261 20.7881 68.1026 21.4496C68.8791 22.111 69.4723 22.8983 69.8821 23.8115C70.2919 24.7245 70.4968 25.7275 70.4968 26.8205L63.8101 26.7988C63.767 26.2524 63.5081 25.7815 63.0336 25.386C62.5591 24.9906 61.8904 24.7928 61.0276 24.7928C60.0066 24.7928 59.2517 24.9798 58.7628 25.3537C58.2739 25.7276 58.0366 26.159 58.051 26.6479C58.051 26.9355 58.1336 27.1764 58.299 27.3705C58.4644 27.5646 58.7232 27.73 59.0755 27.8665C59.4278 28.0031 59.8772 28.1218 60.4237 28.2224C60.9702 28.3231 61.6244 28.4238 62.3865 28.5244C63.5657 28.7258 64.6873 28.9667 65.7514 29.2471C66.8155 29.5275 67.7538 29.9157 68.5662 30.4118C69.3788 30.9079 70.0223 31.555 70.4968 32.3531C70.9714 33.1512 71.2086 34.1614 71.2086 35.3836C71.2086 36.7209 70.9426 37.8821 70.4105 38.8672C69.8784 39.8522 69.1343 40.6682 68.178 41.3153C67.2218 41.9624 66.0822 42.4406 64.7592 42.7498C63.4362 43.0589 61.9838 43.2134 60.402 43.2134C58.6765 43.2134 57.1989 42.9834 55.9694 42.5233C54.74 42.0631 53.7298 41.4627 52.9389 40.7221C52.1481 39.9816 51.5657 39.1476 51.1918 38.2201C50.8179 37.2926 50.6309 36.3687 50.6309 35.4483L57.1882 35.47Z" fill="#252627"/>
  <path d="M72.3769 44.9066H76.1084C76.6261 44.9066 77.0755 44.8513 77.4566 44.7408C77.8376 44.6302 78.1683 44.4608 78.4488 44.2325C78.7292 44.004 78.97 43.713 79.1714 43.3593C79.3727 43.0056 79.5596 42.5856 79.7321 42.0992L80.0341 41.2371L71.7513 19.773H78.7399L83.5932 34.1414L88.3385 19.7951L95.4134 19.751L86.8286 42.254C86.1384 44.0519 85.4374 45.4924 84.7256 46.5755C84.0138 47.6587 83.2409 48.4877 82.4069 49.0624C81.5728 49.6371 80.6524 50.0166 79.6459 50.2008C78.6393 50.385 77.5033 50.4772 76.2378 50.4772H72.3769V44.9066Z" fill="#252627"/>
  <path d="M103.592 33.3339C103.592 34.5418 104.088 35.5052 105.081 36.2242C106.073 36.9432 107.475 37.3027 109.287 37.3027C110.279 37.3027 111.12 37.2272 111.81 37.0762C112.501 36.9252 113.061 36.7131 113.493 36.4399C113.924 36.1667 114.241 35.8323 114.442 35.437C114.643 35.0415 114.744 34.5921 114.744 34.0888C114.744 33.3842 114.579 32.8162 114.248 32.3848C113.917 31.9534 113.442 31.5939 112.824 31.3063C112.206 31.0186 111.455 30.7598 110.57 30.5298C109.686 30.2997 108.683 30.0265 107.561 29.7101C107.015 29.5663 106.393 29.4081 105.695 29.2356C104.998 29.063 104.29 28.8473 103.571 28.5885C102.852 28.3296 102.151 28.0169 101.468 27.6502C100.785 27.2835 100.174 26.8342 99.6343 26.3021C99.095 25.77 98.6636 25.1409 98.3401 24.4147C98.0165 23.6886 97.8546 22.8366 97.8546 21.8587C97.8546 20.392 98.092 19.0726 98.5666 17.9006C99.0411 16.7287 99.7709 15.733 100.756 14.9133C101.741 14.0937 102.992 13.4681 104.509 13.0367C106.026 12.6053 107.834 12.3896 109.934 12.3896C111.659 12.3896 113.187 12.6089 114.517 13.0474C115.848 13.486 116.969 14.108 117.882 14.9133C118.795 15.7185 119.489 16.6927 119.964 17.8359C120.438 18.9791 120.676 20.2553 120.676 21.6646H113.816C113.816 21.2332 113.737 20.8126 113.579 20.4028C113.421 19.9929 113.162 19.6334 112.803 19.3242C112.443 19.0151 111.979 18.7671 111.411 18.5801C110.843 18.3932 110.142 18.2997 109.308 18.2997C108.388 18.2997 107.629 18.3788 107.033 18.537C106.436 18.6951 105.965 18.9108 105.62 19.1841C105.275 19.4573 105.034 19.7665 104.897 20.1116C104.761 20.4567 104.692 20.809 104.692 21.1684C104.692 21.6718 104.854 22.1068 105.178 22.4735C105.501 22.8401 105.943 23.1565 106.504 23.4226C107.065 23.6885 107.726 23.915 108.489 24.102C109.251 24.2889 110.078 24.4615 110.969 24.6197C111.99 24.8641 112.964 25.1229 113.892 25.3962C114.819 25.6694 115.679 25.9857 116.469 26.3452C117.26 26.7047 117.976 27.1146 118.616 27.5747C119.256 28.0348 119.802 28.5777 120.255 29.2032C120.708 29.8287 121.057 30.5441 121.301 31.3494C121.546 32.1547 121.668 33.0751 121.668 34.1104C121.668 35.5915 121.355 36.8965 120.73 38.0253C120.104 39.1541 119.234 40.1032 118.119 40.8725C117.005 41.6418 115.682 42.2206 114.151 42.6089C112.619 42.9971 110.955 43.1912 109.157 43.1912C106.914 43.1912 105.009 42.9 103.441 42.3177C101.874 41.7353 100.598 40.9767 99.6126 40.042C98.6276 39.1074 97.9087 38.0541 97.4557 36.8821C97.0027 35.7101 96.7762 34.5274 96.7762 33.3339H103.592Z" fill="#252627"/>
  <path d="M123.709 31.2854C123.709 29.6461 123.99 28.1039 124.551 26.6587C125.111 25.2135 125.91 23.9517 126.945 22.8732C127.98 21.7947 129.238 20.9427 130.72 20.3172C132.201 19.6917 133.862 19.3789 135.702 19.3789C137.183 19.3789 138.513 19.6197 139.693 20.1014C140.872 20.5832 141.871 21.1548 142.691 21.8162L142.664 19.8452H148.644V43.1641H142.695L142.669 40.7545C141.835 41.416 140.832 41.984 139.66 42.4586C138.488 42.9331 137.169 43.1704 135.702 43.1704C133.876 43.1704 132.222 42.8576 130.741 42.2321C129.26 41.6066 127.998 40.7581 126.956 39.6868C125.913 38.6155 125.111 37.3573 124.551 35.9121C123.99 34.4669 123.709 32.9247 123.709 31.2854ZM130.374 31.2637C130.374 32.1985 130.533 33.0469 130.849 33.8091C131.165 34.5712 131.593 35.2255 132.132 35.7719C132.672 36.3183 133.304 36.7389 134.031 37.0337C134.757 37.3285 135.53 37.476 136.349 37.476C137.169 37.476 137.942 37.3285 138.668 37.0337C139.394 36.7389 140.027 36.3219 140.566 35.7827C141.105 35.2435 141.53 34.5892 141.839 33.8199C142.148 33.0505 142.303 32.1985 142.303 31.2637C142.303 30.3435 142.144 29.5059 141.828 28.7509C141.512 27.996 141.084 27.3489 140.545 26.8096C140.005 26.2704 139.373 25.8534 138.646 25.5586C137.92 25.2638 137.147 25.1164 136.328 25.1164C135.494 25.1164 134.714 25.2638 133.987 25.5586C133.261 25.8534 132.632 26.2704 132.1 26.8096C131.568 27.3489 131.147 27.996 130.838 28.7509C130.529 29.5059 130.374 30.3435 130.374 31.2637Z" fill="#252627"/>
  <path d="M153.383 12.0664H160.048V42.4582H153.383V12.0664Z" fill="#252627"/>
  <path d="M163.405 31.2854C163.405 29.6461 163.707 28.1039 164.311 26.6587C164.915 25.2135 165.767 23.9517 166.867 22.8732C167.967 21.7947 169.28 20.9427 170.804 20.3172C172.328 19.6917 174.01 19.3789 175.851 19.3789C177.692 19.3789 179.378 19.6917 180.909 20.3172C182.441 20.9427 183.756 21.7947 184.857 22.8732C185.957 23.9517 186.812 25.2135 187.423 26.6587C188.034 28.1039 188.34 29.6461 188.34 31.2854C188.34 32.9247 188.034 34.4669 187.423 35.9121C186.812 37.3573 185.957 38.6191 184.857 39.6976C183.756 40.7761 182.437 41.6245 180.898 42.2428C179.36 42.8612 177.663 43.1704 175.808 43.1704C173.996 43.1704 172.328 42.8576 170.804 42.2321C169.28 41.6066 167.971 40.7581 166.878 39.6868C165.785 38.6155 164.933 37.3573 164.322 35.9121C163.711 34.4669 163.405 32.9247 163.405 31.2854ZM170.07 31.2637C170.07 32.1985 170.221 33.0433 170.523 33.7982C170.825 34.5532 171.242 35.2039 171.774 35.7503C172.306 36.2968 172.925 36.7174 173.629 37.0122C174.334 37.3069 175.089 37.4543 175.894 37.4543C176.714 37.4543 177.476 37.3069 178.181 37.0122C178.885 36.7174 179.497 36.3004 180.014 35.7612C180.532 35.2219 180.942 34.5712 181.244 33.8091C181.546 33.0469 181.697 32.1985 181.697 31.2637C181.697 30.3435 181.546 29.5059 181.244 28.7509C180.942 27.996 180.528 27.3489 180.003 26.8096C179.478 26.2704 178.864 25.8534 178.159 25.5586C177.454 25.2638 176.692 25.1164 175.873 25.1164C175.067 25.1164 174.312 25.2638 173.608 25.5586C172.903 25.8534 172.289 26.2704 171.764 26.8096C171.239 27.3489 170.825 27.996 170.523 28.7509C170.221 29.5059 170.07 30.3435 170.07 31.2637Z" fill="#252627"/>
  <path d="M191.676 19.9481H198.018V22.3683C198.358 21.8825 198.757 21.4837 199.215 21.1718C199.812 20.7311 200.355 20.4288 200.843 20.2651C201.447 20.0122 202.101 19.8031 202.806 19.6378C203.511 19.4724 204.251 19.3896 205.028 19.3896C206.552 19.3896 207.875 19.6413 208.997 20.1446C210.118 20.648 211.046 21.3777 211.779 22.3339C212.512 23.2902 213.059 24.4514 213.418 25.8175C213.778 27.1835 213.958 28.7293 213.958 30.4549V42.4478H207.314V30.606C207.314 29.6713 207.214 28.8804 207.012 28.2333C206.811 27.5862 206.527 27.0577 206.16 26.6479C205.794 26.2381 205.355 25.9397 204.845 25.7528C204.334 25.5658 203.77 25.4723 203.151 25.4723C202.518 25.4723 201.911 25.5909 201.329 25.8282C200.746 26.0655 200.232 26.4286 199.786 26.9176C199.341 27.4065 198.985 28.0212 198.719 28.7618C198.453 29.5023 198.32 30.3686 198.32 31.3609V42.4478H191.676V19.9481Z" fill="#252627"/>
  <path d="M83.58 15.2232C83.4653 15.2224 83.3901 15.1575 83.3733 15.1421L76.7364 8.4995C75.1564 7.06841 74.6132 4.88822 75.3499 3.07756C76.2078 0.967427 78.3734 0.416862 78.5194 0.382636C80.3805 -0.0518786 82.3694 0.757924 83.5821 2.41015C84.7941 0.757924 86.7838 -0.0518786 88.6442 0.382636C88.7383 0.404562 90.9463 0.942559 91.8144 3.07756C92.5561 4.90212 91.999 7.08004 90.4278 8.4995L83.791 15.1421C83.7741 15.1575 83.6975 15.2239 83.58 15.2232Z" fill="#FD084A"/>
  <path d="M27.1306 67.637V60.5137H29.8067C30.365 60.5137 30.8303 60.6276 31.2025 60.8554C31.5747 61.0832 31.8539 61.3752 32.04 61.7314C32.2261 62.0876 32.3191 62.4614 32.3191 62.8528C32.3191 63.2443 32.2261 63.6197 32.04 63.9791C31.8539 64.3385 31.5747 64.6321 31.2025 64.8599C30.8303 65.0877 30.365 65.2016 29.8067 65.2016H28.2569V67.637H27.1306ZM29.8067 61.4955H28.2569V64.2198H29.8067C30.1147 64.2198 30.3714 64.154 30.5768 64.0224C30.7821 63.8909 30.9362 63.7208 31.0388 63.5122C31.1415 63.3037 31.1929 63.0871 31.1929 62.8625C31.1929 62.6314 31.1415 62.4116 31.0388 62.2031C30.9362 61.9945 30.7821 61.8244 30.5768 61.6929C30.3714 61.5613 30.1147 61.4955 29.8067 61.4955Z" fill="black"/>
  <path d="M33.4449 67.637V60.5137H34.5711V66.6552H38.1713V67.637H33.4449Z" fill="black"/>
  <path d="M39.163 67.637L41.6465 60.5137H43.0904L45.5836 67.637H44.3996L43.8509 66.0391H40.8957L40.347 67.637H39.163ZM41.2326 65.038H43.514L42.3781 61.7169L41.2326 65.038Z" fill="black"/>
  <path d="M47.6921 67.637V61.4955H45.4781V60.5137H51.0228V61.4955H48.8087V67.637H47.6921Z" fill="black"/>
  <path d="M52.1679 67.637V60.5137H56.9617V61.4955H53.2942V63.6807H56.5189V64.6529H53.2942V67.637H52.1679Z" fill="black"/>
  <path d="M61.3127 67.7329C60.7416 67.7329 60.2378 67.6286 59.8014 67.42C59.365 67.2115 58.9992 66.9323 58.704 66.5826C58.4088 66.2328 58.1874 65.8397 58.0398 65.4033C57.8922 64.967 57.8184 64.5209 57.8184 64.0653C57.8184 63.6097 57.8922 63.1653 58.0398 62.7321C58.1874 62.2989 58.4088 61.909 58.704 61.5625C58.9992 61.216 59.365 60.9384 59.8014 60.7298C60.2378 60.5213 60.7416 60.417 61.3127 60.417C61.8903 60.417 62.3973 60.5213 62.8337 60.7298C63.2701 60.9384 63.6359 61.216 63.9311 61.5625C64.2263 61.909 64.4477 62.2989 64.5953 62.7321C64.7429 63.1653 64.8167 63.6097 64.8167 64.0653C64.8167 64.5209 64.7429 64.967 64.5953 65.4033C64.4477 65.8397 64.2263 66.2328 63.9311 66.5826C63.6359 66.9323 63.2701 67.2115 62.8337 67.42C62.3973 67.6286 61.8903 67.7329 61.3127 67.7329ZM61.3127 66.7029C61.8261 66.7029 62.2561 66.5761 62.6026 66.3226C62.9492 66.0692 63.2123 65.7419 63.392 65.3408C63.5717 64.9397 63.6615 64.5145 63.6615 64.0653C63.6615 63.7316 63.6102 63.4091 63.5075 63.0979C63.4048 62.7866 63.2556 62.5059 63.0599 62.2556C62.8642 62.0053 62.6203 61.808 62.3283 61.6636C62.0363 61.5192 61.6978 61.447 61.3127 61.447C60.9341 61.447 60.5988 61.5192 60.3068 61.6636C60.0148 61.808 59.7709 62.0053 59.5752 62.2556C59.3795 62.5059 59.2303 62.7866 59.1276 63.0979C59.0249 63.4091 58.9736 63.7316 58.9736 64.0653C58.9736 64.5145 59.0634 64.9397 59.2431 65.3408C59.4228 65.7419 59.6859 66.0692 60.0324 66.3226C60.379 66.5761 60.8058 66.7029 61.3127 66.7029Z" fill="black"/>
  <path d="M66.0302 67.637V60.5137H68.6774C69.1844 60.5137 69.6128 60.6115 69.9625 60.8073C70.3123 61.003 70.577 61.2597 70.7567 61.5774C70.9364 61.895 71.0262 62.24 71.0262 62.6122C71.0262 63.0614 70.8995 63.4689 70.646 63.8347C70.3925 64.2005 70.0219 64.4572 69.5341 64.6048L71.2476 67.637H69.9866L68.3694 64.7299H67.1565V67.637H66.0302ZM68.6582 61.4955H67.1565V63.7866H68.6582C69.0625 63.7866 69.3673 63.6695 69.5727 63.4352C69.778 63.201 69.8807 62.9363 69.8807 62.6411C69.8807 62.3459 69.778 62.0811 69.5727 61.8469C69.3673 61.6127 69.0625 61.4955 68.6582 61.4955Z" fill="black"/>
  <path d="M72.6039 67.637V60.5137H74.096L76.0309 64.5663L77.9946 60.5137H79.4674V67.637H78.3604V62.1886L76.5603 65.8658H75.511L73.7109 62.1694V67.637H72.6039Z" fill="black"/>
  <path d="M83.1448 67.637V60.5137H87.9386V61.4955H84.271V63.6807H87.4958V64.6529H84.271V67.637H83.1448Z" fill="black"/>
  <path d="M92.2904 67.7329C91.7192 67.7329 91.2155 67.6286 90.7791 67.42C90.3427 67.2115 89.9769 66.9323 89.6817 66.5826C89.3865 66.2328 89.1651 65.8397 89.0175 65.4033C88.8699 64.967 88.7961 64.5209 88.7961 64.0653C88.7961 63.6097 88.8699 63.1653 89.0175 62.7321C89.1651 62.2989 89.3865 61.909 89.6817 61.5625C89.9769 61.216 90.3427 60.9384 90.7791 60.7298C91.2155 60.5213 91.7192 60.417 92.2904 60.417C92.868 60.417 93.3749 60.5213 93.8113 60.7298C94.2477 60.9384 94.6135 61.216 94.9087 61.5625C95.2039 61.909 95.4253 62.2989 95.5729 62.7321C95.7205 63.1653 95.7943 63.6097 95.7943 64.0653C95.7943 64.5209 95.7205 64.967 95.5729 65.4033C95.4253 65.8397 95.2039 66.2328 94.9087 66.5826C94.6135 66.9323 94.2477 67.2115 93.8113 67.42C93.3749 67.6286 92.868 67.7329 92.2904 67.7329ZM92.2904 66.7029C92.8038 66.7029 93.2337 66.5761 93.5803 66.3226C93.9268 66.0692 94.1899 65.7419 94.3696 65.3408C94.5493 64.9397 94.6392 64.5145 94.6392 64.0653C94.6392 63.7316 94.5878 63.4091 94.4852 63.0979C94.3825 62.7866 94.2333 62.5059 94.0375 62.2556C93.8418 62.0053 93.5979 61.808 93.3059 61.6636C93.014 61.5192 92.6754 61.447 92.2904 61.447C91.9118 61.447 91.5764 61.5192 91.2844 61.6636C90.9925 61.808 90.7486 62.0053 90.5529 62.2556C90.3571 62.5059 90.2079 62.7866 90.1052 63.0979C90.0026 63.4091 89.9512 63.7316 89.9512 64.0653C89.9512 64.5145 90.0411 64.9397 90.2208 65.3408C90.4004 65.7419 90.6636 66.0692 91.0101 66.3226C91.3566 66.5761 91.7834 66.7029 92.2904 66.7029Z" fill="black"/>
  <path d="M97.0062 67.637V60.5137H99.6534C100.16 60.5137 100.589 60.6115 100.939 60.8073C101.288 61.003 101.553 61.2597 101.733 61.5774C101.912 61.895 102.002 62.24 102.002 62.6122C102.002 63.0614 101.875 63.4689 101.622 63.8347C101.368 64.2005 100.998 64.4572 100.51 64.6048L102.224 67.637H100.963L99.3454 64.7299H98.1325V67.637H97.0062ZM99.6342 61.4955H98.1325V63.7866H99.6342C100.038 63.7866 100.343 63.6695 100.549 63.4352C100.754 63.201 100.857 62.9363 100.857 62.6411C100.857 62.3459 100.754 62.0811 100.549 61.8469C100.343 61.6127 100.038 61.4955 99.6342 61.4955Z" fill="black"/>
  <path d="M108.27 67.7329C107.846 67.7329 107.482 67.6783 107.177 67.5692C106.872 67.4601 106.62 67.3206 106.422 67.1505C106.223 66.9804 106.064 66.7991 105.945 66.6066C105.826 66.4141 105.738 66.2328 105.68 66.0627C105.623 65.8927 105.584 65.7531 105.565 65.644C105.546 65.5349 105.536 65.4804 105.536 65.4804H106.681C106.681 65.4804 106.691 65.5237 106.71 65.6103C106.73 65.6969 106.768 65.8028 106.826 65.928C106.884 66.0531 106.972 66.1783 107.091 66.3034C107.209 66.4285 107.367 66.5344 107.562 66.6211C107.758 66.7077 108.007 66.751 108.308 66.751C108.758 66.751 109.109 66.6451 109.362 66.4333C109.616 66.2216 109.743 65.952 109.743 65.6247C109.743 65.3424 109.648 65.1226 109.459 64.9654C109.269 64.8081 108.992 64.6878 108.626 64.6044L107.683 64.383C107.33 64.306 107.004 64.192 106.706 64.0412C106.407 63.8904 106.166 63.6867 105.984 63.43C105.801 63.1733 105.709 62.8492 105.709 62.4577C105.709 62.0342 105.814 61.67 106.022 61.3652C106.231 61.0603 106.519 60.8261 106.888 60.6625C107.257 60.4988 107.679 60.417 108.154 60.417C108.616 60.417 108.998 60.486 109.3 60.624C109.601 60.7619 109.842 60.9304 110.022 61.1293C110.201 61.3283 110.335 61.5288 110.421 61.731C110.508 61.9331 110.564 62.1032 110.59 62.2411C110.615 62.3791 110.628 62.4481 110.628 62.4481H109.531C109.531 62.4481 109.518 62.3952 109.492 62.2893C109.467 62.1834 109.407 62.0599 109.314 61.9187C109.221 61.7775 109.08 61.654 108.891 61.5481C108.701 61.4422 108.446 61.3892 108.125 61.3892C107.683 61.3892 107.352 61.4919 107.134 61.6973C106.916 61.9026 106.807 62.1304 106.807 62.3807C106.807 62.6246 106.9 62.8187 107.086 62.9631C107.272 63.1075 107.522 63.215 107.837 63.2856L108.847 63.5262C109.22 63.6097 109.558 63.7348 109.863 63.9017C110.168 64.0685 110.41 64.2883 110.59 64.5611C110.769 64.8338 110.859 65.1659 110.859 65.5574C110.859 65.9552 110.761 66.3194 110.566 66.6499C110.37 66.9804 110.079 67.2435 109.694 67.4393C109.309 67.635 108.835 67.7329 108.27 67.7329Z" fill="black"/>
  <path d="M111.446 67.637L113.929 60.5137H115.373L117.867 67.637H116.683L116.134 66.0391H113.179L112.63 67.637H111.446ZM113.515 65.038H115.797L114.661 61.7169L113.515 65.038Z" fill="black"/>
  <path d="M118.983 67.637V60.5137H120.109V66.6552H123.71V67.637H118.983Z" fill="black"/>
  <path d="M127.696 67.7329C127.124 67.7329 126.621 67.6286 126.184 67.42C125.748 67.2115 125.382 66.9323 125.087 66.5826C124.792 66.2328 124.57 65.8397 124.423 65.4033C124.275 64.967 124.201 64.5209 124.201 64.0653C124.201 63.6097 124.275 63.1653 124.423 62.7321C124.57 62.2989 124.792 61.909 125.087 61.5625C125.382 61.216 125.748 60.9384 126.184 60.7298C126.621 60.5213 127.124 60.417 127.696 60.417C128.273 60.417 128.78 60.5213 129.217 60.7298C129.653 60.9384 130.019 61.216 130.314 61.5625C130.609 61.909 130.831 62.2989 130.978 62.7321C131.126 63.1653 131.2 63.6097 131.2 64.0653C131.2 64.5209 131.126 64.967 130.978 65.4033C130.831 65.8397 130.609 66.2328 130.314 66.5826C130.019 66.9323 129.653 67.2115 129.217 67.42C128.78 67.6286 128.273 67.7329 127.696 67.7329ZM127.696 66.7029C128.209 66.7029 128.639 66.5761 128.986 66.3226C129.332 66.0692 129.595 65.7419 129.775 65.3408C129.955 64.9397 130.044 64.5145 130.044 64.0653C130.044 63.7316 129.993 63.4091 129.89 63.0979C129.788 62.7866 129.638 62.5059 129.443 62.2556C129.247 62.0053 129.003 61.808 128.711 61.6636C128.419 61.5192 128.081 61.447 127.696 61.447C127.317 61.447 126.982 61.5192 126.69 61.6636C126.398 61.808 126.154 62.0053 125.958 62.2556C125.762 62.5059 125.613 62.7866 125.51 63.0979C125.408 63.4091 125.356 63.7316 125.356 64.0653C125.356 64.5145 125.446 64.9397 125.626 65.3408C125.806 65.7419 126.069 66.0692 126.415 66.3226C126.762 66.5761 127.189 66.7029 127.696 66.7029Z" fill="black"/>
  <path d="M132.411 67.637V60.5137H133.432L136.926 65.6348V60.5137H138.052V67.637H137.022L133.528 62.5641V67.637H132.411Z" fill="black"/>
  <path d="M144.204 67.7329C143.78 67.7329 143.416 67.6783 143.111 67.5692C142.806 67.4601 142.554 67.3206 142.355 67.1505C142.157 66.9804 141.998 66.7991 141.879 66.6066C141.76 66.4141 141.672 66.2328 141.614 66.0627C141.556 65.8927 141.518 65.7531 141.499 65.644C141.479 65.5349 141.47 65.4804 141.47 65.4804H142.615C142.615 65.4804 142.625 65.5237 142.644 65.6103C142.663 65.6969 142.702 65.8028 142.76 65.928C142.818 66.0531 142.906 66.1783 143.024 66.3034C143.143 66.4285 143.3 66.5344 143.496 66.6211C143.692 66.7077 143.941 66.751 144.242 66.751C144.691 66.751 145.043 66.6451 145.296 66.4333C145.55 66.2216 145.676 65.952 145.676 65.6247C145.676 65.3424 145.582 65.1226 145.393 64.9654C145.203 64.8081 144.926 64.6878 144.56 64.6044L143.616 64.383C143.264 64.306 142.938 64.192 142.639 64.0412C142.341 63.8904 142.1 63.6867 141.917 63.43C141.735 63.1733 141.643 62.8492 141.643 62.4577C141.643 62.0342 141.747 61.67 141.956 61.3652C142.165 61.0603 142.453 60.8261 142.822 60.6625C143.191 60.4988 143.613 60.417 144.088 60.417C144.55 60.417 144.932 60.486 145.234 60.624C145.535 60.7619 145.776 60.9304 145.956 61.1293C146.135 61.3283 146.268 61.5288 146.355 61.731C146.442 61.9331 146.498 62.1032 146.524 62.2411C146.549 62.3791 146.562 62.4481 146.562 62.4481H145.465C145.465 62.4481 145.452 62.3952 145.426 62.2893C145.401 62.1834 145.341 62.0599 145.248 61.9187C145.155 61.7775 145.014 61.654 144.825 61.5481C144.635 61.4422 144.38 61.3892 144.059 61.3892C143.616 61.3892 143.286 61.4919 143.068 61.6973C142.85 61.9026 142.741 62.1304 142.741 62.3807C142.741 62.6246 142.834 62.8187 143.02 62.9631C143.206 63.1075 143.456 63.215 143.771 63.2856L144.781 63.5262C145.153 63.6097 145.492 63.7348 145.797 63.9017C146.102 64.0685 146.344 64.2883 146.524 64.5611C146.703 64.8338 146.793 65.1659 146.793 65.5574C146.793 65.9552 146.695 66.3194 146.5 66.6499C146.304 66.9804 146.013 67.2435 145.628 67.4393C145.243 67.635 144.768 67.7329 144.204 67.7329Z" fill="black"/>
  <path d="M150.711 67.7333C150.165 67.7333 149.684 67.629 149.267 67.4205C148.849 67.2119 148.524 66.9071 148.29 66.506C148.055 66.1049 147.938 65.6123 147.938 65.0283V60.5137H149.064V65.0283C149.064 65.4904 149.199 65.8803 149.469 66.1979C149.738 66.5156 150.152 66.6744 150.711 66.6744C151.275 66.6744 151.692 66.5156 151.962 66.1979C152.231 65.8803 152.366 65.4904 152.366 65.0283V60.5137H153.492V65.0283C153.492 65.6123 153.375 66.1049 153.141 66.506C152.907 66.9071 152.58 67.2119 152.159 67.4205C151.739 67.629 151.256 67.7333 150.711 67.7333Z" fill="black"/>
  <path d="M158.133 67.7329C157.562 67.7329 157.063 67.6286 156.636 67.42C156.21 67.2115 155.853 66.9323 155.568 66.5826C155.282 66.2328 155.067 65.8413 154.923 65.4082C154.778 64.975 154.706 64.5306 154.706 64.0749C154.706 63.6193 154.778 63.1733 154.923 62.7369C155.067 62.3005 155.282 61.9074 155.568 61.5577C155.853 61.2079 156.21 60.9304 156.636 60.725C157.063 60.5197 157.562 60.417 158.133 60.417C158.602 60.417 159.004 60.478 159.341 60.5999C159.678 60.7218 159.961 60.8774 160.188 61.0668C160.416 61.2561 160.599 61.4566 160.737 61.6684C160.875 61.8802 160.978 62.0823 161.045 62.2748C161.112 62.4674 161.159 62.623 161.185 62.7417C161.21 62.8604 161.223 62.9198 161.223 62.9198H160.097C160.097 62.9198 160.086 62.8701 160.063 62.7706C160.041 62.6711 159.993 62.5476 159.919 62.4C159.845 62.2524 159.736 62.1064 159.592 61.962C159.447 61.8176 159.258 61.6957 159.024 61.5962C158.789 61.4967 158.496 61.447 158.143 61.447C157.764 61.447 157.432 61.5208 157.146 61.6684C156.861 61.816 156.622 62.0149 156.429 62.2652C156.237 62.5155 156.094 62.7979 156.001 63.1123C155.908 63.4268 155.861 63.7476 155.861 64.0749C155.861 64.4022 155.908 64.7215 156.001 65.0327C156.094 65.344 156.237 65.6263 156.429 65.8798C156.622 66.1333 156.861 66.3339 157.146 66.4815C157.432 66.6291 157.764 66.7029 158.143 66.7029C158.496 66.7029 158.789 66.6531 159.024 66.5537C159.258 66.4542 159.447 66.3307 159.592 66.1831C159.736 66.0355 159.845 65.8879 159.919 65.7403C159.993 65.5927 160.041 65.4691 160.063 65.3697C160.086 65.2702 160.097 65.2204 160.097 65.2204H161.223C161.223 65.2204 161.21 65.2814 161.185 65.4033C161.159 65.5253 161.112 65.6809 161.045 65.8702C160.978 66.0595 160.875 66.2617 160.737 66.4767C160.599 66.6916 160.416 66.8938 160.188 67.0831C159.961 67.2724 159.678 67.428 159.341 67.55C159.004 67.6719 158.602 67.7329 158.133 67.7329Z" fill="black"/>
  <path d="M165.613 67.7329C165.042 67.7329 164.543 67.6286 164.116 67.42C163.689 67.2115 163.333 66.9323 163.047 66.5826C162.762 66.2328 162.547 65.8413 162.403 65.4082C162.258 64.975 162.186 64.5306 162.186 64.0749C162.186 63.6193 162.258 63.1733 162.403 62.7369C162.547 62.3005 162.762 61.9074 163.047 61.5577C163.333 61.2079 163.689 60.9304 164.116 60.725C164.543 60.5197 165.042 60.417 165.613 60.417C166.081 60.417 166.484 60.478 166.821 60.5999C167.158 60.7218 167.44 60.8774 167.668 61.0668C167.896 61.2561 168.079 61.4566 168.217 61.6684C168.355 61.8802 168.457 62.0823 168.525 62.2748C168.592 62.4674 168.639 62.623 168.664 62.7417C168.69 62.8604 168.703 62.9198 168.703 62.9198H167.577C167.577 62.9198 167.565 62.8701 167.543 62.7706C167.52 62.6711 167.472 62.5476 167.399 62.4C167.325 62.2524 167.216 62.1064 167.071 61.962C166.927 61.8176 166.737 61.6957 166.503 61.5962C166.269 61.4967 165.975 61.447 165.622 61.447C165.244 61.447 164.912 61.5208 164.626 61.6684C164.341 61.816 164.102 62.0149 163.909 62.2652C163.716 62.5155 163.574 62.7979 163.481 63.1123C163.388 63.4268 163.341 63.7476 163.341 64.0749C163.341 64.4022 163.388 64.7215 163.481 65.0327C163.574 65.344 163.716 65.6263 163.909 65.8798C164.102 66.1333 164.341 66.3339 164.626 66.4815C164.912 66.6291 165.244 66.7029 165.622 66.7029C165.975 66.7029 166.269 66.6531 166.503 66.5537C166.737 66.4542 166.927 66.3307 167.071 66.1831C167.216 66.0355 167.325 65.8879 167.399 65.7403C167.472 65.5927 167.52 65.4691 167.543 65.3697C167.565 65.2702 167.577 65.2204 167.577 65.2204H168.703C168.703 65.2204 168.69 65.2814 168.664 65.4033C168.639 65.5253 168.592 65.6809 168.525 65.8702C168.457 66.0595 168.355 66.2617 168.217 66.4767C168.079 66.6916 167.896 66.8938 167.668 67.0831C167.44 67.2724 167.158 67.428 166.821 67.55C166.484 67.6719 166.081 67.7329 165.613 67.7329Z" fill="black"/>
  <path d="M169.915 67.637V60.5137H174.564V61.4955H171.041V63.5267H174.122V64.4989H171.041V66.6552H174.613V67.637H169.915Z" fill="black"/>
  <path d="M178.347 67.7329C177.924 67.7329 177.559 67.6783 177.255 67.5692C176.95 67.4601 176.698 67.3206 176.499 67.1505C176.3 66.9804 176.141 66.7991 176.022 66.6066C175.904 66.4141 175.816 66.2328 175.758 66.0627C175.7 65.8927 175.661 65.7531 175.642 65.644C175.623 65.5349 175.613 65.4804 175.613 65.4804H176.759C176.759 65.4804 176.768 65.5237 176.788 65.6103C176.807 65.6969 176.846 65.8028 176.903 65.928C176.961 66.0531 177.049 66.1783 177.168 66.3034C177.287 66.4285 177.444 66.5344 177.64 66.6211C177.835 66.7077 178.084 66.751 178.386 66.751C178.835 66.751 179.186 66.6451 179.44 66.4333C179.693 66.2216 179.82 65.952 179.82 65.6247C179.82 65.3424 179.725 65.1226 179.536 64.9654C179.347 64.8081 179.069 64.6878 178.703 64.6044L177.76 64.383C177.407 64.306 177.081 64.192 176.783 64.0412C176.485 63.8904 176.244 63.6867 176.061 63.43C175.878 63.1733 175.787 62.8492 175.787 62.4577C175.787 62.0342 175.891 61.67 176.099 61.3652C176.308 61.0603 176.597 60.8261 176.966 60.6625C177.335 60.4988 177.757 60.417 178.232 60.417C178.694 60.417 179.076 60.486 179.377 60.624C179.679 60.7619 179.919 60.9304 180.099 61.1293C180.279 61.3283 180.412 61.5288 180.499 61.731C180.585 61.9331 180.641 62.1032 180.667 62.2411C180.693 62.3791 180.706 62.4481 180.706 62.4481H179.608C179.608 62.4481 179.595 62.3952 179.57 62.2893C179.544 62.1834 179.485 62.0599 179.392 61.9187C179.299 61.7775 179.157 61.654 178.968 61.5481C178.779 61.4422 178.524 61.3892 178.203 61.3892C177.76 61.3892 177.429 61.4919 177.211 61.6973C176.993 61.9026 176.884 62.1304 176.884 62.3807C176.884 62.6246 176.977 62.8187 177.163 62.9631C177.349 63.1075 177.6 63.215 177.914 63.2856L178.925 63.5262C179.297 63.6097 179.635 63.7348 179.94 63.9017C180.245 64.0685 180.487 64.2883 180.667 64.5611C180.847 64.8338 180.937 65.1659 180.937 65.5574C180.937 65.9552 180.839 66.3194 180.643 66.6499C180.447 66.9804 180.157 67.2435 179.772 67.4393C179.387 67.635 178.912 67.7329 178.347 67.7329Z" fill="black"/>
  <path d="M184.595 67.7329C184.171 67.7329 183.807 67.6783 183.502 67.5692C183.197 67.4601 182.946 67.3206 182.747 67.1505C182.548 66.9804 182.389 66.7991 182.27 66.6066C182.151 66.4141 182.063 66.2328 182.005 66.0627C181.948 65.8927 181.909 65.7531 181.89 65.644C181.871 65.5349 181.861 65.4804 181.861 65.4804H183.006C183.006 65.4804 183.016 65.5237 183.035 65.6103C183.055 65.6969 183.093 65.8028 183.151 65.928C183.209 66.0531 183.297 66.1783 183.416 66.3034C183.534 66.4285 183.692 66.5344 183.887 66.6211C184.083 66.7077 184.332 66.751 184.633 66.751C185.083 66.751 185.434 66.6451 185.687 66.4333C185.941 66.2216 186.068 65.952 186.068 65.6247C186.068 65.3424 185.973 65.1226 185.784 64.9654C185.594 64.8081 185.317 64.6878 184.951 64.6044L184.008 64.383C183.655 64.306 183.329 64.192 183.031 64.0412C182.732 63.8904 182.491 63.6867 182.309 63.43C182.126 63.1733 182.034 62.8492 182.034 62.4577C182.034 62.0342 182.139 61.67 182.347 61.3652C182.556 61.0603 182.844 60.8261 183.213 60.6625C183.582 60.4988 184.004 60.417 184.479 60.417C184.941 60.417 185.323 60.486 185.625 60.624C185.926 60.7619 186.167 60.9304 186.347 61.1293C186.526 61.3283 186.66 61.5288 186.746 61.731C186.833 61.9331 186.889 62.1032 186.915 62.2411C186.94 62.3791 186.953 62.4481 186.953 62.4481H185.856C185.856 62.4481 185.843 62.3952 185.817 62.2893C185.792 62.1834 185.732 62.0599 185.639 61.9187C185.546 61.7775 185.405 61.654 185.216 61.5481C185.026 61.4422 184.771 61.3892 184.45 61.3892C184.008 61.3892 183.677 61.4919 183.459 61.6973C183.241 61.9026 183.132 62.1304 183.132 62.3807C183.132 62.6246 183.225 62.8187 183.411 62.9631C183.597 63.1075 183.847 63.215 184.162 63.2856L185.172 63.5262C185.545 63.6097 185.883 63.7348 186.188 63.9017C186.493 64.0685 186.735 64.2883 186.915 64.5611C187.094 64.8338 187.184 65.1659 187.184 65.5574C187.184 65.9552 187.086 66.3194 186.891 66.6499C186.695 66.9804 186.405 67.2435 186.019 67.4393C185.634 67.635 185.16 67.7329 184.595 67.7329Z" fill="black"/>
</svg>