<svg width="28" height="28" viewBox="0 0 28 28" fill="none" xmlns="http://www.w3.org/2000/svg">
<g id="ic/Bold Duotone / Security / Lock Password Unlocked">
<path id="Vector" opacity="0.5" d="M2.33325 18.666C2.33325 15.3662 2.33325 13.7163 3.35838 12.6911C4.3835 11.666 6.03342 11.666 9.33325 11.666H18.6666C21.9664 11.666 23.6163 11.666 24.6415 12.6911C25.6666 13.7163 25.6666 15.3662 25.6666 18.666C25.6666 21.9658 25.6666 23.6158 24.6415 24.6409C23.6163 25.666 21.9664 25.666 18.6666 25.666H9.33325C6.03342 25.666 4.3835 25.666 3.35838 24.6409C2.33325 23.6158 2.33325 21.9658 2.33325 18.666Z" fill="#3D8CF5"/>
<g id="Vector_2">
<path d="M9.33341 19.8333C9.97775 19.8333 10.5001 19.311 10.5001 18.6667C10.5001 18.0223 9.97775 17.5 9.33341 17.5C8.68908 17.5 8.16675 18.0223 8.16675 18.6667C8.16675 19.311 8.68908 19.8333 9.33341 19.8333Z" fill="#3D8CF5"/>
<path d="M14.0001 19.8333C14.6444 19.8333 15.1667 19.311 15.1667 18.6667C15.1667 18.0223 14.6444 17.5 14.0001 17.5C13.3558 17.5 12.8334 18.0223 12.8334 18.6667C12.8334 19.311 13.3558 19.8333 14.0001 19.8333Z" fill="#3D8CF5"/>
<path d="M19.8334 18.6667C19.8334 19.311 19.3111 19.8333 18.6667 19.8333C18.0224 19.8333 17.5001 19.311 17.5001 18.6667C17.5001 18.0223 18.0224 17.5 18.6667 17.5C19.3111 17.5 19.8334 18.0223 19.8334 18.6667Z" fill="#3D8CF5"/>
</g>
<path id="Vector_3" d="M7.875 9.33398C7.875 5.95124 10.6173 3.20898 14 3.20898C16.8528 3.20898 19.2521 5.16014 19.9321 7.80209C20.0525 8.27008 20.5296 8.55182 20.9976 8.43137C21.4656 8.31091 21.7473 7.83388 21.6269 7.36588C20.7527 3.96953 17.6706 1.45898 14 1.45898C9.65076 1.45898 6.125 4.98474 6.125 9.33398V11.731C6.63426 11.693 7.21308 11.6777 7.875 11.6715V9.33398Z" fill="#3D8CF5"/>
</g>
</svg>
