<svg width="19" height="20" viewBox="0 0 19 20" fill="none" xmlns="http://www.w3.org/2000/svg">
<path d="M9.32101 10.9653C9.74921 10.9653 10.0963 10.6182 10.0963 10.19C10.0963 9.76175 9.74921 9.41463 9.32101 9.41463C8.8928 9.41463 8.54568 9.76175 8.54568 10.19C8.54568 10.6182 8.8928 10.9653 9.32101 10.9653Z" stroke="#98A2B3" stroke-width="1.55066" stroke-linecap="round" stroke-linejoin="round"/>
<path d="M9.32101 5.53797C9.74921 5.53797 10.0963 5.19084 10.0963 4.76264C10.0963 4.33443 9.74921 3.9873 9.32101 3.9873C8.8928 3.9873 8.54568 4.33443 8.54568 4.76264C8.54568 5.19084 8.8928 5.53797 9.32101 5.53797Z" stroke="#98A2B3" stroke-width="1.55066" stroke-linecap="round" stroke-linejoin="round"/>
<path d="M9.32101 16.3926C9.74921 16.3926 10.0963 16.0455 10.0963 15.6173C10.0963 15.1891 9.74921 14.8419 9.32101 14.8419C8.8928 14.8419 8.54568 15.1891 8.54568 15.6173C8.54568 16.0455 8.8928 16.3926 9.32101 16.3926Z" stroke="#98A2B3" stroke-width="1.55066" stroke-linecap="round" stroke-linejoin="round"/>
</svg>
