<svg width="353" height="38" viewBox="0 0 353 38" fill="none" xmlns="http://www.w3.org/2000/svg">
<path d="M1.58522 36.785L9.51337 33.8445L17.6893 32.4726L25.8652 35.2163L34.2888 33.8445H42.7125L50.8884 32.4726H58.5688L66.4969 30.6435L74.4251 32.4726L83.8398 29.2716L90.7769 30.6435L98.2095 29.2716L105.642 27.8998L115.057 29.2716L121.994 27.8998L128.436 25.1561L137.107 22.4123L145.778 20.1259H154.45L163.617 18.7541L170.058 20.1259H173.775L179.969 22.4123L187.153 26.5279L194.586 27.8998H197.311L203.505 22.4123L209.947 20.1259L215.645 18.7541L226.794 17.3822L230.511 14.1812L238.686 12.8094L248.101 11.4375H252.065C253.634 11.8948 256.872 12.8094 257.268 12.8094C257.664 12.8094 262.719 13.7239 265.196 14.1812L271.638 17.3822H279.318L286.751 14.1812L291.954 15.5531L301.864 17.3822L308.058 15.5531L318.711 14.1812C319.95 13.7239 322.527 12.8094 322.923 12.8094C323.319 12.8094 326.061 11.2851 327.383 10.5229H332.338L336.054 5.95007H343.982L351.415 1.06641" stroke="#0665E4" stroke-width="1.8608" stroke-linecap="round" stroke-linejoin="round"/>
</svg>
