<svg width="240" height="92" viewBox="0 0 240 92" fill="none" xmlns="http://www.w3.org/2000/svg">
<path d="M13.0424 25.123H33.7064V31.0116H19.8801V37.008H31.7434V42.8749H19.8801V48.591H33.9005V54.458H13.0424V25.123Z" fill="#252627"/>
<path d="M35.7696 43.2854C35.7696 41.6461 36.05 40.1039 36.6108 38.6587C37.1716 37.2135 37.9697 35.9517 39.0051 34.8732C40.0404 33.7947 41.2986 32.9427 42.7797 32.3172C44.2609 31.6917 45.9218 31.3789 47.7623 31.3789C49.2435 31.3789 50.5737 31.6197 51.7528 32.1014C52.932 32.5832 53.9314 33.1548 54.7511 33.8162L54.7246 31.8452H60.7043V55.1641H54.7554L54.7294 52.7545C53.8954 53.416 52.8924 53.984 51.7204 54.4586C50.5485 54.9331 49.2292 55.1704 47.7623 55.1704C45.9361 55.1704 44.2825 54.8576 42.8014 54.2321C41.3202 53.6066 40.0584 52.7581 39.0159 51.6868C37.9733 50.6155 37.1716 49.3573 36.6108 47.9121C36.05 46.4669 35.7696 44.9247 35.7696 43.2854ZM42.4347 43.2637C42.4347 44.1985 42.5928 45.0469 42.9091 45.8091C43.2256 46.5712 43.6534 47.2255 44.1926 47.7719C44.7319 48.3183 45.3646 48.7389 46.0907 49.0337C46.8169 49.3285 47.5898 49.476 48.4094 49.476C49.2291 49.476 50.002 49.3285 50.7283 49.0337C51.4544 48.7389 52.0871 48.3219 52.6264 47.7827C53.1656 47.2435 53.5898 46.5892 53.899 45.8199C54.2082 45.0505 54.3628 44.1985 54.3628 43.2637C54.3628 42.3435 54.2046 41.5059 53.8882 40.7509C53.5719 39.996 53.1441 39.3489 52.6048 38.8096C52.0656 38.2704 51.4329 37.8534 50.7067 37.5586C49.9805 37.2638 49.2076 37.1164 48.3879 37.1164C47.5539 37.1164 46.7738 37.2638 46.0475 37.5586C45.3214 37.8534 44.6923 38.2704 44.1603 38.8096C43.6282 39.3489 43.2076 39.996 42.8984 40.7509C42.5892 41.5059 42.4347 42.3435 42.4347 43.2637Z" fill="#252627"/>
<path d="M70.1882 47.47C70.2457 48.1458 70.5944 48.6922 71.2343 49.1092C71.8742 49.5263 72.6831 49.7348 73.6609 49.7348C74.9264 49.7348 75.8395 49.5694 76.4003 49.2387C76.9611 48.9079 77.2415 48.4405 77.2415 47.8366C77.2415 47.4771 77.1121 47.1859 76.8533 46.963C76.5944 46.7402 76.2134 46.5425 75.71 46.3699C75.2067 46.1974 74.5884 46.0392 73.855 45.8953C73.1216 45.7515 72.2732 45.5718 71.3098 45.3561C70.8784 45.2698 70.4039 45.1656 69.8862 45.0434C69.3685 44.9211 68.8545 44.7557 68.344 44.5472C67.8335 44.3388 67.3409 44.0799 66.8664 43.7707C66.3919 43.4615 65.9712 43.0768 65.6046 42.6166C65.2379 42.1566 64.9467 41.6065 64.731 40.9666C64.5153 40.3267 64.4074 39.5754 64.4074 38.7126C64.4074 37.5766 64.6123 36.552 65.0222 35.6389C65.432 34.7257 66.054 33.9564 66.888 33.3309C67.722 32.7054 68.7717 32.2236 70.0371 31.8857C71.3026 31.5479 72.7909 31.3789 74.5021 31.3789C75.897 31.3789 77.1517 31.5586 78.2661 31.9181C79.3806 32.2776 80.3261 32.7881 81.1026 33.4496C81.8791 34.111 82.4723 34.8983 82.8821 35.8115C83.2919 36.7245 83.4968 37.7275 83.4968 38.8205L76.8101 38.7988C76.767 38.2524 76.5081 37.7815 76.0336 37.386C75.5591 36.9906 74.8904 36.7928 74.0276 36.7928C73.0066 36.7928 72.2517 36.9798 71.7628 37.3537C71.2739 37.7276 71.0366 38.159 71.051 38.6479C71.051 38.9355 71.1336 39.1764 71.299 39.3705C71.4644 39.5646 71.7232 39.73 72.0755 39.8665C72.4278 40.0031 72.8772 40.1218 73.4237 40.2224C73.9702 40.3231 74.6244 40.4238 75.3865 40.5244C76.5657 40.7258 77.6873 40.9667 78.7514 41.2471C79.8155 41.5275 80.7538 41.9157 81.5662 42.4118C82.3788 42.9079 83.0223 43.555 83.4968 44.3531C83.9714 45.1512 84.2086 46.1614 84.2086 47.3836C84.2086 48.7209 83.9426 49.8821 83.4104 50.8672C82.8784 51.8522 82.1343 52.6682 81.178 53.3153C80.2218 53.9624 79.0822 54.4406 77.7592 54.7498C76.4362 55.0589 74.9838 55.2134 73.402 55.2134C71.6765 55.2134 70.1989 54.9834 68.9694 54.5233C67.74 54.0631 66.7298 53.4627 65.9389 52.7221C65.1481 51.9816 64.5657 51.1476 64.1918 50.2201C63.8179 49.2926 63.6309 48.3687 63.6309 47.4483L70.1882 47.47Z" fill="#252627"/>
<path d="M85.3769 56.9066H89.1084C89.6261 56.9066 90.0755 56.8513 90.4566 56.7408C90.8376 56.6302 91.1683 56.4608 91.4488 56.2325C91.7292 56.004 91.97 55.713 92.1714 55.3593C92.3727 55.0056 92.5596 54.5856 92.7321 54.0992L93.0341 53.2371L84.7513 31.773H91.7399L96.5932 46.1414L101.338 31.7951L108.413 31.751L99.8286 54.254C99.1384 56.0519 98.4374 57.4924 97.7256 58.5755C97.0138 59.6587 96.2409 60.4877 95.4069 61.0624C94.5728 61.6371 93.6524 62.0166 92.6459 62.2008C91.6393 62.385 90.5033 62.4772 89.2378 62.4772H85.3769V56.9066Z" fill="#252627"/>
<path d="M116.592 45.3339C116.592 46.5418 117.088 47.5052 118.081 48.2242C119.073 48.9432 120.475 49.3027 122.287 49.3027C123.279 49.3027 124.12 49.2272 124.81 49.0762C125.501 48.9252 126.061 48.7131 126.493 48.4399C126.924 48.1667 127.241 47.8323 127.442 47.437C127.643 47.0415 127.744 46.5921 127.744 46.0888C127.744 45.3842 127.579 44.8162 127.248 44.3848C126.917 43.9534 126.442 43.5939 125.824 43.3063C125.206 43.0186 124.455 42.7598 123.57 42.5298C122.686 42.2997 121.683 42.0265 120.561 41.7101C120.015 41.5663 119.393 41.4081 118.695 41.2356C117.998 41.063 117.29 40.8473 116.571 40.5885C115.852 40.3296 115.151 40.0169 114.468 39.6502C113.785 39.2835 113.174 38.8342 112.634 38.3021C112.095 37.77 111.664 37.1409 111.34 36.4147C111.016 35.6886 110.855 34.8366 110.855 33.8587C110.855 32.392 111.092 31.0726 111.567 29.9006C112.041 28.7287 112.771 27.733 113.756 26.9133C114.741 26.0937 115.992 25.4681 117.509 25.0367C119.026 24.6053 120.834 24.3896 122.934 24.3896C124.659 24.3896 126.187 24.6089 127.517 25.0474C128.848 25.486 129.969 26.108 130.882 26.9133C131.795 27.7185 132.489 28.6927 132.964 29.8359C133.438 30.9791 133.676 32.2553 133.676 33.6646H126.816C126.816 33.2332 126.737 32.8126 126.579 32.4028C126.421 31.9929 126.162 31.6334 125.803 31.3242C125.443 31.0151 124.979 30.7671 124.411 30.5801C123.843 30.3932 123.142 30.2997 122.308 30.2997C121.388 30.2997 120.629 30.3788 120.033 30.537C119.436 30.6951 118.965 30.9108 118.62 31.1841C118.275 31.4573 118.034 31.7665 117.897 32.1116C117.761 32.4567 117.692 32.809 117.692 33.1684C117.692 33.6718 117.854 34.1068 118.178 34.4735C118.501 34.8401 118.943 35.1565 119.504 35.4226C120.065 35.6885 120.726 35.915 121.489 36.102C122.251 36.2889 123.078 36.4615 123.969 36.6197C124.99 36.8641 125.964 37.1229 126.892 37.3962C127.819 37.6694 128.679 37.9857 129.469 38.3452C130.26 38.7047 130.976 39.1146 131.616 39.5747C132.256 40.0348 132.802 40.5777 133.255 41.2032C133.708 41.8287 134.057 42.5441 134.301 43.3494C134.546 44.1547 134.668 45.0751 134.668 46.1104C134.668 47.5915 134.355 48.8965 133.73 50.0253C133.104 51.1541 132.234 52.1032 131.119 52.8725C130.005 53.6418 128.682 54.2206 127.151 54.6089C125.619 54.9971 123.955 55.1912 122.157 55.1912C119.914 55.1912 118.009 54.9 116.441 54.3177C114.874 53.7353 113.598 52.9767 112.613 52.042C111.628 51.1074 110.909 50.0541 110.456 48.8821C110.003 47.7101 109.776 46.5274 109.776 45.3339H116.592Z" fill="#252627"/>
<path d="M136.709 43.2854C136.709 41.6461 136.99 40.1039 137.551 38.6587C138.111 37.2135 138.91 35.9517 139.945 34.8732C140.98 33.7947 142.238 32.9427 143.72 32.3172C145.201 31.6917 146.862 31.3789 148.702 31.3789C150.183 31.3789 151.513 31.6197 152.693 32.1014C153.872 32.5832 154.871 33.1548 155.691 33.8162L155.664 31.8452H161.644V55.1641H155.695L155.669 52.7545C154.835 53.416 153.832 53.984 152.66 54.4586C151.488 54.9331 150.169 55.1704 148.702 55.1704C146.876 55.1704 145.222 54.8576 143.741 54.2321C142.26 53.6066 140.998 52.7581 139.956 51.6868C138.913 50.6155 138.111 49.3573 137.551 47.9121C136.99 46.4669 136.709 44.9247 136.709 43.2854ZM143.374 43.2637C143.374 44.1985 143.533 45.0469 143.849 45.8091C144.165 46.5712 144.593 47.2255 145.132 47.7719C145.672 48.3183 146.304 48.7389 147.031 49.0337C147.757 49.3285 148.53 49.476 149.349 49.476C150.169 49.476 150.942 49.3285 151.668 49.0337C152.394 48.7389 153.027 48.3219 153.566 47.7827C154.105 47.2435 154.53 46.5892 154.839 45.8199C155.148 45.0505 155.303 44.1985 155.303 43.2637C155.303 42.3435 155.144 41.5059 154.828 40.7509C154.512 39.996 154.084 39.3489 153.545 38.8096C153.005 38.2704 152.373 37.8534 151.646 37.5586C150.92 37.2638 150.147 37.1164 149.328 37.1164C148.494 37.1164 147.714 37.2638 146.987 37.5586C146.261 37.8534 145.632 38.2704 145.1 38.8096C144.568 39.3489 144.147 39.996 143.838 40.7509C143.529 41.5059 143.374 42.3435 143.374 43.2637Z" fill="#252627"/>
<path d="M166.383 24.0664H173.048V54.4582H166.383V24.0664Z" fill="#252627"/>
<path d="M176.405 43.2854C176.405 41.6461 176.707 40.1039 177.311 38.6587C177.915 37.2135 178.767 35.9517 179.867 34.8732C180.967 33.7947 182.28 32.9427 183.804 32.3172C185.328 31.6917 187.01 31.3789 188.851 31.3789C190.692 31.3789 192.378 31.6917 193.909 32.3172C195.441 32.9427 196.756 33.7947 197.857 34.8732C198.957 35.9517 199.812 37.2135 200.423 38.6587C201.034 40.1039 201.34 41.6461 201.34 43.2854C201.34 44.9247 201.034 46.4669 200.423 47.9121C199.812 49.3573 198.957 50.6191 197.857 51.6976C196.756 52.7761 195.437 53.6245 193.898 54.2428C192.36 54.8612 190.663 55.1704 188.808 55.1704C186.996 55.1704 185.328 54.8576 183.804 54.2321C182.28 53.6066 180.971 52.7581 179.878 51.6868C178.785 50.6155 177.933 49.3573 177.322 47.9121C176.711 46.4669 176.405 44.9247 176.405 43.2854ZM183.07 43.2637C183.07 44.1985 183.221 45.0433 183.523 45.7982C183.825 46.5532 184.242 47.2039 184.774 47.7503C185.306 48.2968 185.925 48.7174 186.629 49.0122C187.334 49.3069 188.089 49.4543 188.894 49.4543C189.714 49.4543 190.476 49.3069 191.181 49.0122C191.885 48.7174 192.497 48.3004 193.014 47.7612C193.532 47.2219 193.942 46.5712 194.244 45.8091C194.546 45.0469 194.697 44.1985 194.697 43.2637C194.697 42.3435 194.546 41.5059 194.244 40.7509C193.942 39.996 193.528 39.3489 193.003 38.8096C192.478 38.2704 191.864 37.8534 191.159 37.5586C190.454 37.2638 189.692 37.1164 188.873 37.1164C188.067 37.1164 187.312 37.2638 186.608 37.5586C185.903 37.8534 185.289 38.2704 184.764 38.8096C184.239 39.3489 183.825 39.996 183.523 40.7509C183.221 41.5059 183.07 42.3435 183.07 43.2637Z" fill="#252627"/>
<path d="M204.676 31.9481H211.018V34.3683C211.358 33.8825 211.757 33.4837 212.215 33.1718C212.812 32.7311 213.355 32.4288 213.843 32.2651C214.447 32.0122 215.101 31.8031 215.806 31.6378C216.511 31.4724 217.251 31.3896 218.028 31.3896C219.552 31.3896 220.875 31.6413 221.997 32.1446C223.118 32.648 224.046 33.3777 224.779 34.3339C225.512 35.2902 226.059 36.4514 226.418 37.8175C226.778 39.1835 226.958 40.7293 226.958 42.4549V54.4478H220.314V42.606C220.314 41.6713 220.214 40.8804 220.012 40.2333C219.811 39.5862 219.527 39.0577 219.16 38.6479C218.794 38.2381 218.355 37.9397 217.845 37.7528C217.334 37.5658 216.77 37.4723 216.151 37.4723C215.518 37.4723 214.911 37.5909 214.329 37.8282C213.746 38.0655 213.232 38.4286 212.786 38.9176C212.341 39.4065 211.985 40.0212 211.719 40.7618C211.453 41.5023 211.32 42.3686 211.32 43.3609V54.4478H204.676V31.9481Z" fill="#252627"/>
<path d="M96.58 27.2232C96.4653 27.2224 96.3901 27.1575 96.3733 27.1421L89.7364 20.4995C88.1564 19.0684 87.6132 16.8882 88.3499 15.0776C89.2078 12.9674 91.3734 12.4169 91.5194 12.3826C93.3805 11.9481 95.3694 12.7579 96.5821 14.4101C97.7941 12.7579 99.7838 11.9481 101.644 12.3826C101.738 12.4046 103.946 12.9426 104.814 15.0776C105.556 16.9021 104.999 19.08 103.428 20.4995L96.791 27.1421C96.7741 27.1575 96.6975 27.2239 96.58 27.2232Z" fill="#FD084A"/>
<path d="M40.1306 79.637V72.5137H42.8067C43.365 72.5137 43.8303 72.6276 44.2025 72.8554C44.5747 73.0832 44.8539 73.3752 45.04 73.7314C45.2261 74.0876 45.3191 74.4614 45.3191 74.8528C45.3191 75.2443 45.2261 75.6197 45.04 75.9791C44.8539 76.3385 44.5747 76.6321 44.2025 76.8599C43.8303 77.0877 43.365 77.2016 42.8067 77.2016H41.2569V79.637H40.1306ZM42.8067 73.4955H41.2569V76.2198H42.8067C43.1147 76.2198 43.3714 76.154 43.5768 76.0224C43.7821 75.8909 43.9362 75.7208 44.0388 75.5122C44.1415 75.3037 44.1929 75.0871 44.1929 74.8625C44.1929 74.6314 44.1415 74.4116 44.0388 74.2031C43.9362 73.9945 43.7821 73.8244 43.5768 73.6929C43.3714 73.5613 43.1147 73.4955 42.8067 73.4955Z" fill="black"/>
<path d="M46.4449 79.637V72.5137H47.5711V78.6552H51.1713V79.637H46.4449Z" fill="black"/>
<path d="M52.163 79.637L54.6465 72.5137H56.0904L58.5836 79.637H57.3996L56.8509 78.0391H53.8957L53.347 79.637H52.163ZM54.2326 77.038H56.514L55.3781 73.7169L54.2326 77.038Z" fill="black"/>
<path d="M60.6921 79.637V73.4955H58.4781V72.5137H64.0228V73.4955H61.8087V79.637H60.6921Z" fill="black"/>
<path d="M65.1679 79.637V72.5137H69.9617V73.4955H66.2942V75.6807H69.5189V76.6529H66.2942V79.637H65.1679Z" fill="black"/>
<path d="M74.3127 79.7329C73.7416 79.7329 73.2378 79.6286 72.8014 79.42C72.365 79.2115 71.9992 78.9323 71.704 78.5826C71.4088 78.2328 71.1874 77.8397 71.0398 77.4033C70.8922 76.967 70.8184 76.5209 70.8184 76.0653C70.8184 75.6097 70.8922 75.1653 71.0398 74.7321C71.1874 74.2989 71.4088 73.909 71.704 73.5625C71.9992 73.216 72.365 72.9384 72.8014 72.7298C73.2378 72.5213 73.7416 72.417 74.3127 72.417C74.8903 72.417 75.3973 72.5213 75.8337 72.7298C76.2701 72.9384 76.6359 73.216 76.9311 73.5625C77.2263 73.909 77.4477 74.2989 77.5953 74.7321C77.7429 75.1653 77.8167 75.6097 77.8167 76.0653C77.8167 76.5209 77.7429 76.967 77.5953 77.4033C77.4477 77.8397 77.2263 78.2328 76.9311 78.5826C76.6359 78.9323 76.2701 79.2115 75.8337 79.42C75.3973 79.6286 74.8903 79.7329 74.3127 79.7329ZM74.3127 78.7029C74.8261 78.7029 75.2561 78.5761 75.6026 78.3226C75.9492 78.0692 76.2123 77.7419 76.392 77.3408C76.5717 76.9397 76.6615 76.5145 76.6615 76.0653C76.6615 75.7316 76.6102 75.4091 76.5075 75.0979C76.4048 74.7866 76.2556 74.5059 76.0599 74.2556C75.8642 74.0053 75.6203 73.808 75.3283 73.6636C75.0363 73.5192 74.6978 73.447 74.3127 73.447C73.9341 73.447 73.5988 73.5192 73.3068 73.6636C73.0148 73.808 72.7709 74.0053 72.5752 74.2556C72.3795 74.5059 72.2303 74.7866 72.1276 75.0979C72.0249 75.4091 71.9736 75.7316 71.9736 76.0653C71.9736 76.5145 72.0634 76.9397 72.2431 77.3408C72.4228 77.7419 72.6859 78.0692 73.0324 78.3226C73.379 78.5761 73.8058 78.7029 74.3127 78.7029Z" fill="black"/>
<path d="M79.0302 79.637V72.5137H81.6774C82.1844 72.5137 82.6128 72.6115 82.9625 72.8073C83.3123 73.003 83.577 73.2597 83.7567 73.5774C83.9364 73.895 84.0262 74.24 84.0262 74.6122C84.0262 75.0614 83.8995 75.4689 83.646 75.8347C83.3925 76.2005 83.0219 76.4572 82.5341 76.6048L84.2476 79.637H82.9866L81.3694 76.7299H80.1565V79.637H79.0302ZM81.6582 73.4955H80.1565V75.7866H81.6582C82.0625 75.7866 82.3673 75.6695 82.5727 75.4352C82.778 75.201 82.8807 74.9363 82.8807 74.6411C82.8807 74.3459 82.778 74.0811 82.5727 73.8469C82.3673 73.6127 82.0625 73.4955 81.6582 73.4955Z" fill="black"/>
<path d="M85.6039 79.637V72.5137H87.096L89.0309 76.5663L90.9946 72.5137H92.4674V79.637H91.3604V74.1886L89.5603 77.8658H88.511L86.7109 74.1694V79.637H85.6039Z" fill="black"/>
<path d="M96.1448 79.637V72.5137H100.939V73.4955H97.271V75.6807H100.496V76.6529H97.271V79.637H96.1448Z" fill="black"/>
<path d="M105.29 79.7329C104.719 79.7329 104.215 79.6286 103.779 79.42C103.343 79.2115 102.977 78.9323 102.682 78.5826C102.386 78.2328 102.165 77.8397 102.017 77.4033C101.87 76.967 101.796 76.5209 101.796 76.0653C101.796 75.6097 101.87 75.1653 102.017 74.7321C102.165 74.2989 102.386 73.909 102.682 73.5625C102.977 73.216 103.343 72.9384 103.779 72.7298C104.215 72.5213 104.719 72.417 105.29 72.417C105.868 72.417 106.375 72.5213 106.811 72.7298C107.248 72.9384 107.613 73.216 107.909 73.5625C108.204 73.909 108.425 74.2989 108.573 74.7321C108.721 75.1653 108.794 75.6097 108.794 76.0653C108.794 76.5209 108.721 76.967 108.573 77.4033C108.425 77.8397 108.204 78.2328 107.909 78.5826C107.613 78.9323 107.248 79.2115 106.811 79.42C106.375 79.6286 105.868 79.7329 105.29 79.7329ZM105.29 78.7029C105.804 78.7029 106.234 78.5761 106.58 78.3226C106.927 78.0692 107.19 77.7419 107.37 77.3408C107.549 76.9397 107.639 76.5145 107.639 76.0653C107.639 75.7316 107.588 75.4091 107.485 75.0979C107.382 74.7866 107.233 74.5059 107.038 74.2556C106.842 74.0053 106.598 73.808 106.306 73.6636C106.014 73.5192 105.675 73.447 105.29 73.447C104.912 73.447 104.576 73.5192 104.284 73.6636C103.992 73.808 103.749 74.0053 103.553 74.2556C103.357 74.5059 103.208 74.7866 103.105 75.0979C103.003 75.4091 102.951 75.7316 102.951 76.0653C102.951 76.5145 103.041 76.9397 103.221 77.3408C103.4 77.7419 103.664 78.0692 104.01 78.3226C104.357 78.5761 104.783 78.7029 105.29 78.7029Z" fill="black"/>
<path d="M110.006 79.637V72.5137H112.653C113.16 72.5137 113.589 72.6115 113.939 72.8073C114.288 73.003 114.553 73.2597 114.733 73.5774C114.912 73.895 115.002 74.24 115.002 74.6122C115.002 75.0614 114.875 75.4689 114.622 75.8347C114.368 76.2005 113.998 76.4572 113.51 76.6048L115.224 79.637H113.963L112.345 76.7299H111.132V79.637H110.006ZM112.634 73.4955H111.132V75.7866H112.634C113.038 75.7866 113.343 75.6695 113.549 75.4352C113.754 75.201 113.857 74.9363 113.857 74.6411C113.857 74.3459 113.754 74.0811 113.549 73.8469C113.343 73.6127 113.038 73.4955 112.634 73.4955Z" fill="black"/>
<path d="M121.27 79.7329C120.846 79.7329 120.482 79.6783 120.177 79.5692C119.872 79.4601 119.62 79.3206 119.422 79.1505C119.223 78.9804 119.064 78.7991 118.945 78.6066C118.826 78.4141 118.738 78.2328 118.68 78.0627C118.623 77.8927 118.584 77.7531 118.565 77.644C118.546 77.5349 118.536 77.4804 118.536 77.4804H119.681C119.681 77.4804 119.691 77.5237 119.71 77.6103C119.73 77.6969 119.768 77.8028 119.826 77.928C119.884 78.0531 119.972 78.1783 120.091 78.3034C120.209 78.4285 120.367 78.5344 120.562 78.6211C120.758 78.7077 121.007 78.751 121.308 78.751C121.758 78.751 122.109 78.6451 122.362 78.4333C122.616 78.2216 122.743 77.952 122.743 77.6247C122.743 77.3424 122.648 77.1226 122.459 76.9654C122.269 76.8081 121.992 76.6878 121.626 76.6044L120.683 76.383C120.33 76.306 120.004 76.192 119.706 76.0412C119.407 75.8904 119.166 75.6867 118.984 75.43C118.801 75.1733 118.709 74.8492 118.709 74.4577C118.709 74.0342 118.814 73.67 119.022 73.3652C119.231 73.0603 119.519 72.8261 119.888 72.6625C120.257 72.4988 120.679 72.417 121.154 72.417C121.616 72.417 121.998 72.486 122.3 72.624C122.601 72.7619 122.842 72.9304 123.022 73.1293C123.201 73.3283 123.335 73.5288 123.421 73.731C123.508 73.9331 123.564 74.1032 123.59 74.2411C123.615 74.3791 123.628 74.4481 123.628 74.4481H122.531C122.531 74.4481 122.518 74.3952 122.492 74.2893C122.467 74.1834 122.407 74.0599 122.314 73.9187C122.221 73.7775 122.08 73.654 121.891 73.5481C121.701 73.4422 121.446 73.3892 121.125 73.3892C120.683 73.3892 120.352 73.4919 120.134 73.6973C119.916 73.9026 119.807 74.1304 119.807 74.3807C119.807 74.6246 119.9 74.8187 120.086 74.9631C120.272 75.1075 120.522 75.215 120.837 75.2856L121.847 75.5262C122.22 75.6097 122.558 75.7348 122.863 75.9017C123.168 76.0685 123.41 76.2883 123.59 76.5611C123.769 76.8338 123.859 77.1659 123.859 77.5574C123.859 77.9552 123.761 78.3194 123.566 78.6499C123.37 78.9804 123.079 79.2435 122.694 79.4393C122.309 79.635 121.835 79.7329 121.27 79.7329Z" fill="black"/>
<path d="M124.446 79.637L126.929 72.5137H128.373L130.867 79.637H129.683L129.134 78.0391H126.179L125.63 79.637H124.446ZM126.515 77.038H128.797L127.661 73.7169L126.515 77.038Z" fill="black"/>
<path d="M131.983 79.637V72.5137H133.109V78.6552H136.71V79.637H131.983Z" fill="black"/>
<path d="M140.696 79.7329C140.124 79.7329 139.621 79.6286 139.184 79.42C138.748 79.2115 138.382 78.9323 138.087 78.5826C137.792 78.2328 137.57 77.8397 137.423 77.4033C137.275 76.967 137.201 76.5209 137.201 76.0653C137.201 75.6097 137.275 75.1653 137.423 74.7321C137.57 74.2989 137.792 73.909 138.087 73.5625C138.382 73.216 138.748 72.9384 139.184 72.7298C139.621 72.5213 140.124 72.417 140.696 72.417C141.273 72.417 141.78 72.5213 142.217 72.7298C142.653 72.9384 143.019 73.216 143.314 73.5625C143.609 73.909 143.831 74.2989 143.978 74.7321C144.126 75.1653 144.2 75.6097 144.2 76.0653C144.2 76.5209 144.126 76.967 143.978 77.4033C143.831 77.8397 143.609 78.2328 143.314 78.5826C143.019 78.9323 142.653 79.2115 142.217 79.42C141.78 79.6286 141.273 79.7329 140.696 79.7329ZM140.696 78.7029C141.209 78.7029 141.639 78.5761 141.986 78.3226C142.332 78.0692 142.595 77.7419 142.775 77.3408C142.955 76.9397 143.044 76.5145 143.044 76.0653C143.044 75.7316 142.993 75.4091 142.89 75.0979C142.788 74.7866 142.638 74.5059 142.443 74.2556C142.247 74.0053 142.003 73.808 141.711 73.6636C141.419 73.5192 141.081 73.447 140.696 73.447C140.317 73.447 139.982 73.5192 139.69 73.6636C139.398 73.808 139.154 74.0053 138.958 74.2556C138.762 74.5059 138.613 74.7866 138.51 75.0979C138.408 75.4091 138.356 75.7316 138.356 76.0653C138.356 76.5145 138.446 76.9397 138.626 77.3408C138.806 77.7419 139.069 78.0692 139.415 78.3226C139.762 78.5761 140.189 78.7029 140.696 78.7029Z" fill="black"/>
<path d="M145.411 79.637V72.5137H146.432L149.926 77.6348V72.5137H151.052V79.637H150.022L146.528 74.5641V79.637H145.411Z" fill="black"/>
<path d="M157.204 79.7329C156.78 79.7329 156.416 79.6783 156.111 79.5692C155.806 79.4601 155.554 79.3206 155.355 79.1505C155.157 78.9804 154.998 78.7991 154.879 78.6066C154.76 78.4141 154.672 78.2328 154.614 78.0627C154.556 77.8927 154.518 77.7531 154.499 77.644C154.479 77.5349 154.47 77.4804 154.47 77.4804H155.615C155.615 77.4804 155.625 77.5237 155.644 77.6103C155.663 77.6969 155.702 77.8028 155.76 77.928C155.818 78.0531 155.906 78.1783 156.024 78.3034C156.143 78.4285 156.3 78.5344 156.496 78.6211C156.692 78.7077 156.941 78.751 157.242 78.751C157.691 78.751 158.043 78.6451 158.296 78.4333C158.55 78.2216 158.676 77.952 158.676 77.6247C158.676 77.3424 158.582 77.1226 158.393 76.9654C158.203 76.8081 157.926 76.6878 157.56 76.6044L156.616 76.383C156.264 76.306 155.938 76.192 155.639 76.0412C155.341 75.8904 155.1 75.6867 154.917 75.43C154.735 75.1733 154.643 74.8492 154.643 74.4577C154.643 74.0342 154.747 73.67 154.956 73.3652C155.165 73.0603 155.453 72.8261 155.822 72.6625C156.191 72.4988 156.613 72.417 157.088 72.417C157.55 72.417 157.932 72.486 158.234 72.624C158.535 72.7619 158.776 72.9304 158.956 73.1293C159.135 73.3283 159.268 73.5288 159.355 73.731C159.442 73.9331 159.498 74.1032 159.524 74.2411C159.549 74.3791 159.562 74.4481 159.562 74.4481H158.465C158.465 74.4481 158.452 74.3952 158.426 74.2893C158.401 74.1834 158.341 74.0599 158.248 73.9187C158.155 73.7775 158.014 73.654 157.825 73.5481C157.635 73.4422 157.38 73.3892 157.059 73.3892C156.616 73.3892 156.286 73.4919 156.068 73.6973C155.85 73.9026 155.741 74.1304 155.741 74.3807C155.741 74.6246 155.834 74.8187 156.02 74.9631C156.206 75.1075 156.456 75.215 156.771 75.2856L157.781 75.5262C158.153 75.6097 158.492 75.7348 158.797 75.9017C159.102 76.0685 159.344 76.2883 159.524 76.5611C159.703 76.8338 159.793 77.1659 159.793 77.5574C159.793 77.9552 159.695 78.3194 159.5 78.6499C159.304 78.9804 159.013 79.2435 158.628 79.4393C158.243 79.635 157.768 79.7329 157.204 79.7329Z" fill="black"/>
<path d="M163.711 79.7333C163.165 79.7333 162.684 79.629 162.267 79.4205C161.849 79.2119 161.524 78.9071 161.29 78.506C161.055 78.1049 160.938 77.6123 160.938 77.0283V72.5137H162.064V77.0283C162.064 77.4904 162.199 77.8803 162.469 78.1979C162.738 78.5156 163.152 78.6744 163.711 78.6744C164.275 78.6744 164.692 78.5156 164.962 78.1979C165.231 77.8803 165.366 77.4904 165.366 77.0283V72.5137H166.492V77.0283C166.492 77.6123 166.375 78.1049 166.141 78.506C165.907 78.9071 165.58 79.2119 165.159 79.4205C164.739 79.629 164.256 79.7333 163.711 79.7333Z" fill="black"/>
<path d="M171.133 79.7329C170.562 79.7329 170.063 79.6286 169.636 79.42C169.21 79.2115 168.853 78.9323 168.568 78.5826C168.282 78.2328 168.067 77.8413 167.923 77.4082C167.778 76.975 167.706 76.5306 167.706 76.0749C167.706 75.6193 167.778 75.1733 167.923 74.7369C168.067 74.3005 168.282 73.9074 168.568 73.5577C168.853 73.2079 169.21 72.9304 169.636 72.725C170.063 72.5197 170.562 72.417 171.133 72.417C171.602 72.417 172.004 72.478 172.341 72.5999C172.678 72.7218 172.961 72.8774 173.188 73.0668C173.416 73.2561 173.599 73.4566 173.737 73.6684C173.875 73.8802 173.978 74.0823 174.045 74.2748C174.112 74.4674 174.159 74.623 174.185 74.7417C174.21 74.8604 174.223 74.9198 174.223 74.9198H173.097C173.097 74.9198 173.086 74.8701 173.063 74.7706C173.041 74.6711 172.993 74.5476 172.919 74.4C172.845 74.2524 172.736 74.1064 172.592 73.962C172.447 73.8176 172.258 73.6957 172.024 73.5962C171.789 73.4967 171.496 73.447 171.143 73.447C170.764 73.447 170.432 73.5208 170.146 73.6684C169.861 73.816 169.622 74.0149 169.429 74.2652C169.237 74.5155 169.094 74.7979 169.001 75.1123C168.908 75.4268 168.861 75.7476 168.861 76.0749C168.861 76.4022 168.908 76.7215 169.001 77.0327C169.094 77.344 169.237 77.6263 169.429 77.8798C169.622 78.1333 169.861 78.3339 170.146 78.4815C170.432 78.6291 170.764 78.7029 171.143 78.7029C171.496 78.7029 171.789 78.6531 172.024 78.5537C172.258 78.4542 172.447 78.3307 172.592 78.1831C172.736 78.0355 172.845 77.8879 172.919 77.7403C172.993 77.5927 173.041 77.4691 173.063 77.3697C173.086 77.2702 173.097 77.2204 173.097 77.2204H174.223C174.223 77.2204 174.21 77.2814 174.185 77.4033C174.159 77.5253 174.112 77.6809 174.045 77.8702C173.978 78.0595 173.875 78.2617 173.737 78.4767C173.599 78.6916 173.416 78.8938 173.188 79.0831C172.961 79.2724 172.678 79.428 172.341 79.55C172.004 79.6719 171.602 79.7329 171.133 79.7329Z" fill="black"/>
<path d="M178.613 79.7329C178.042 79.7329 177.543 79.6286 177.116 79.42C176.689 79.2115 176.333 78.9323 176.047 78.5826C175.762 78.2328 175.547 77.8413 175.403 77.4082C175.258 76.975 175.186 76.5306 175.186 76.0749C175.186 75.6193 175.258 75.1733 175.403 74.7369C175.547 74.3005 175.762 73.9074 176.047 73.5577C176.333 73.2079 176.689 72.9304 177.116 72.725C177.543 72.5197 178.042 72.417 178.613 72.417C179.081 72.417 179.484 72.478 179.821 72.5999C180.158 72.7218 180.44 72.8774 180.668 73.0668C180.896 73.2561 181.079 73.4566 181.217 73.6684C181.355 73.8802 181.457 74.0823 181.525 74.2748C181.592 74.4674 181.639 74.623 181.664 74.7417C181.69 74.8604 181.703 74.9198 181.703 74.9198H180.577C180.577 74.9198 180.565 74.8701 180.543 74.7706C180.52 74.6711 180.472 74.5476 180.399 74.4C180.325 74.2524 180.216 74.1064 180.071 73.962C179.927 73.8176 179.737 73.6957 179.503 73.5962C179.269 73.4967 178.975 73.447 178.622 73.447C178.244 73.447 177.912 73.5208 177.626 73.6684C177.341 73.816 177.102 74.0149 176.909 74.2652C176.716 74.5155 176.574 74.7979 176.481 75.1123C176.388 75.4268 176.341 75.7476 176.341 76.0749C176.341 76.4022 176.388 76.7215 176.481 77.0327C176.574 77.344 176.716 77.6263 176.909 77.8798C177.102 78.1333 177.341 78.3339 177.626 78.4815C177.912 78.6291 178.244 78.7029 178.622 78.7029C178.975 78.7029 179.269 78.6531 179.503 78.5537C179.737 78.4542 179.927 78.3307 180.071 78.1831C180.216 78.0355 180.325 77.8879 180.399 77.7403C180.472 77.5927 180.52 77.4691 180.543 77.3697C180.565 77.2702 180.577 77.2204 180.577 77.2204H181.703C181.703 77.2204 181.69 77.2814 181.664 77.4033C181.639 77.5253 181.592 77.6809 181.525 77.8702C181.457 78.0595 181.355 78.2617 181.217 78.4767C181.079 78.6916 180.896 78.8938 180.668 79.0831C180.44 79.2724 180.158 79.428 179.821 79.55C179.484 79.6719 179.081 79.7329 178.613 79.7329Z" fill="black"/>
<path d="M182.915 79.637V72.5137H187.564V73.4955H184.041V75.5267H187.122V76.4989H184.041V78.6552H187.613V79.637H182.915Z" fill="black"/>
<path d="M191.347 79.7329C190.924 79.7329 190.559 79.6783 190.255 79.5692C189.95 79.4601 189.698 79.3206 189.499 79.1505C189.3 78.9804 189.141 78.7991 189.022 78.6066C188.904 78.4141 188.816 78.2328 188.758 78.0627C188.7 77.8927 188.661 77.7531 188.642 77.644C188.623 77.5349 188.613 77.4804 188.613 77.4804H189.759C189.759 77.4804 189.768 77.5237 189.788 77.6103C189.807 77.6969 189.846 77.8028 189.903 77.928C189.961 78.0531 190.049 78.1783 190.168 78.3034C190.287 78.4285 190.444 78.5344 190.64 78.6211C190.835 78.7077 191.084 78.751 191.386 78.751C191.835 78.751 192.186 78.6451 192.44 78.4333C192.693 78.2216 192.82 77.952 192.82 77.6247C192.82 77.3424 192.725 77.1226 192.536 76.9654C192.347 76.8081 192.069 76.6878 191.703 76.6044L190.76 76.383C190.407 76.306 190.081 76.192 189.783 76.0412C189.485 75.8904 189.244 75.6867 189.061 75.43C188.878 75.1733 188.787 74.8492 188.787 74.4577C188.787 74.0342 188.891 73.67 189.099 73.3652C189.308 73.0603 189.597 72.8261 189.966 72.6625C190.335 72.4988 190.757 72.417 191.232 72.417C191.694 72.417 192.076 72.486 192.377 72.624C192.679 72.7619 192.919 72.9304 193.099 73.1293C193.279 73.3283 193.412 73.5288 193.499 73.731C193.585 73.9331 193.641 74.1032 193.667 74.2411C193.693 74.3791 193.706 74.4481 193.706 74.4481H192.608C192.608 74.4481 192.595 74.3952 192.57 74.2893C192.544 74.1834 192.485 74.0599 192.392 73.9187C192.299 73.7775 192.157 73.654 191.968 73.5481C191.779 73.4422 191.524 73.3892 191.203 73.3892C190.76 73.3892 190.429 73.4919 190.211 73.6973C189.993 73.9026 189.884 74.1304 189.884 74.3807C189.884 74.6246 189.977 74.8187 190.163 74.9631C190.349 75.1075 190.6 75.215 190.914 75.2856L191.925 75.5262C192.297 75.6097 192.635 75.7348 192.94 75.9017C193.245 76.0685 193.487 76.2883 193.667 76.5611C193.847 76.8338 193.937 77.1659 193.937 77.5574C193.937 77.9552 193.839 78.3194 193.643 78.6499C193.447 78.9804 193.157 79.2435 192.772 79.4393C192.387 79.635 191.912 79.7329 191.347 79.7329Z" fill="black"/>
<path d="M197.595 79.7329C197.171 79.7329 196.807 79.6783 196.502 79.5692C196.197 79.4601 195.946 79.3206 195.747 79.1505C195.548 78.9804 195.389 78.7991 195.27 78.6066C195.151 78.4141 195.063 78.2328 195.005 78.0627C194.948 77.8927 194.909 77.7531 194.89 77.644C194.871 77.5349 194.861 77.4804 194.861 77.4804H196.006C196.006 77.4804 196.016 77.5237 196.035 77.6103C196.055 77.6969 196.093 77.8028 196.151 77.928C196.209 78.0531 196.297 78.1783 196.416 78.3034C196.534 78.4285 196.692 78.5344 196.887 78.6211C197.083 78.7077 197.332 78.751 197.633 78.751C198.083 78.751 198.434 78.6451 198.687 78.4333C198.941 78.2216 199.068 77.952 199.068 77.6247C199.068 77.3424 198.973 77.1226 198.784 76.9654C198.594 76.8081 198.317 76.6878 197.951 76.6044L197.008 76.383C196.655 76.306 196.329 76.192 196.031 76.0412C195.732 75.8904 195.491 75.6867 195.309 75.43C195.126 75.1733 195.034 74.8492 195.034 74.4577C195.034 74.0342 195.139 73.67 195.347 73.3652C195.556 73.0603 195.844 72.8261 196.213 72.6625C196.582 72.4988 197.004 72.417 197.479 72.417C197.941 72.417 198.323 72.486 198.625 72.624C198.926 72.7619 199.167 72.9304 199.347 73.1293C199.526 73.3283 199.66 73.5288 199.746 73.731C199.833 73.9331 199.889 74.1032 199.915 74.2411C199.94 74.3791 199.953 74.4481 199.953 74.4481H198.856C198.856 74.4481 198.843 74.3952 198.817 74.2893C198.792 74.1834 198.732 74.0599 198.639 73.9187C198.546 73.7775 198.405 73.654 198.216 73.5481C198.026 73.4422 197.771 73.3892 197.45 73.3892C197.008 73.3892 196.677 73.4919 196.459 73.6973C196.241 73.9026 196.132 74.1304 196.132 74.3807C196.132 74.6246 196.225 74.8187 196.411 74.9631C196.597 75.1075 196.847 75.215 197.162 75.2856L198.172 75.5262C198.545 75.6097 198.883 75.7348 199.188 75.9017C199.493 76.0685 199.735 76.2883 199.915 76.5611C200.094 76.8338 200.184 77.1659 200.184 77.5574C200.184 77.9552 200.086 78.3194 199.891 78.6499C199.695 78.9804 199.405 79.2435 199.019 79.4393C198.634 79.635 198.16 79.7329 197.595 79.7329Z" fill="black"/>
</svg>
