<svg width="19" height="20" viewBox="0 0 19 20" fill="none" xmlns="http://www.w3.org/2000/svg">
<path d="M9.32101 10.9663C9.74921 10.9663 10.0963 10.6191 10.0963 10.1909C10.0963 9.76273 9.74921 9.4156 9.32101 9.4156C8.8928 9.4156 8.54568 9.76273 8.54568 10.1909C8.54568 10.6191 8.8928 10.9663 9.32101 10.9663Z" stroke="#98A2B3" stroke-width="1.55066" stroke-linecap="round" stroke-linejoin="round"/>
<path d="M9.32101 5.53894C9.74921 5.53894 10.0963 5.19182 10.0963 4.76361C10.0963 4.33541 9.74921 3.98828 9.32101 3.98828C8.8928 3.98828 8.54568 4.33541 8.54568 4.76361C8.54568 5.19182 8.8928 5.53894 9.32101 5.53894Z" stroke="#98A2B3" stroke-width="1.55066" stroke-linecap="round" stroke-linejoin="round"/>
<path d="M9.32101 16.3936C9.74921 16.3936 10.0963 16.0465 10.0963 15.6183C10.0963 15.19 9.74921 14.8429 9.32101 14.8429C8.8928 14.8429 8.54568 15.19 8.54568 15.6183C8.54568 16.0465 8.8928 16.3936 9.32101 16.3936Z" stroke="#98A2B3" stroke-width="1.55066" stroke-linecap="round" stroke-linejoin="round"/>
</svg>
