<svg width="161" height="8" viewBox="0 0 161 8" fill="none" xmlns="http://www.w3.org/2000/svg">
<path d="M0.130615 7.63704V0.513672H2.80669C3.36501 0.513672 3.83028 0.627586 4.20249 0.855405C4.5747 1.08322 4.85386 1.37522 5.03997 1.73139C5.22608 2.08755 5.31913 2.46137 5.31913 2.85283C5.31913 3.2443 5.22608 3.61972 5.03997 3.9791C4.85386 4.33847 4.5747 4.63207 4.20249 4.85989C3.83028 5.08771 3.36501 5.20162 2.80669 5.20162H1.25688V7.63704H0.130615ZM2.80669 1.49555H1.25688V4.21975H2.80669C3.11473 4.21975 3.37143 4.15397 3.57679 4.02241C3.78215 3.89085 3.93617 3.7208 4.03884 3.51223C4.14152 3.30366 4.19286 3.08707 4.19286 2.86246C4.19286 2.63144 4.14152 2.41164 4.03884 2.20307C3.93617 1.9945 3.78215 1.82444 3.57679 1.69288C3.37143 1.56132 3.11473 1.49555 2.80669 1.49555Z" fill="black"/>
<path d="M6.44489 7.63704V0.513672H7.57115V6.65517H11.1713V7.63704H6.44489Z" fill="black"/>
<path d="M12.163 7.63704L14.6465 0.513672H16.0904L18.5836 7.63704H17.3996L16.8509 6.03909H13.8957L13.347 7.63704H12.163ZM14.2326 5.03797H16.514L15.3781 1.71694L14.2326 5.03797Z" fill="black"/>
<path d="M20.6921 7.63704V1.49555H18.4781V0.513672H24.0228V1.49555H21.8087V7.63704H20.6921Z" fill="black"/>
<path d="M25.1679 7.63704V0.513672H29.9617V1.49555H26.2942V3.68069H29.5189V4.65293H26.2942V7.63704H25.1679Z" fill="black"/>
<path d="M34.3127 7.73385C33.7416 7.73385 33.2378 7.62957 32.8014 7.421C32.365 7.21244 31.9992 6.93328 31.704 6.58353C31.4088 6.23378 31.1874 5.84071 31.0398 5.40432C30.8922 4.96794 30.8184 4.52193 30.8184 4.06629C30.8184 3.61065 30.8922 3.16624 31.0398 2.73306C31.1874 2.29988 31.4088 1.91002 31.704 1.56348C31.9992 1.21694 32.365 0.939389 32.8014 0.730823C33.2378 0.522256 33.7416 0.417969 34.3127 0.417969C34.8903 0.417969 35.3973 0.522256 35.8337 0.730823C36.2701 0.939389 36.6359 1.21694 36.9311 1.56348C37.2263 1.91002 37.4477 2.29988 37.5953 2.73306C37.7429 3.16624 37.8167 3.61065 37.8167 4.06629C37.8167 4.52193 37.7429 4.96794 37.5953 5.40432C37.4477 5.84071 37.2263 6.23378 36.9311 6.58353C36.6359 6.93328 36.2701 7.21244 35.8337 7.421C35.3973 7.62957 34.8903 7.73385 34.3127 7.73385ZM34.3127 6.70385C34.8261 6.70385 35.2561 6.57711 35.6026 6.32362C35.9492 6.07013 36.2123 5.74284 36.392 5.34175C36.5717 4.94066 36.6615 4.51551 36.6615 4.06629C36.6615 3.73258 36.6102 3.4101 36.5075 3.09886C36.4048 2.78761 36.2556 2.50685 36.0599 2.25657C35.8642 2.00629 35.6203 1.80895 35.3283 1.66455C35.0363 1.52016 34.6978 1.44797 34.3127 1.44797C33.9341 1.44797 33.5988 1.52016 33.3068 1.66455C33.0148 1.80895 32.7709 2.00629 32.5752 2.25657C32.3795 2.50685 32.2303 2.78761 32.1276 3.09886C32.0249 3.4101 31.9736 3.73258 31.9736 4.06629C31.9736 4.51551 32.0634 4.94066 32.2431 5.34175C32.4228 5.74284 32.6859 6.07013 33.0324 6.32362C33.379 6.57711 33.8058 6.70385 34.3127 6.70385Z" fill="black"/>
<path d="M39.0302 7.63704V0.513672H41.6774C42.1844 0.513672 42.6128 0.611544 42.9625 0.807276C43.3123 1.00301 43.577 1.25971 43.7567 1.57737C43.9364 1.89503 44.0262 2.23997 44.0262 2.61218C44.0262 3.0614 43.8995 3.46891 43.646 3.8347C43.3925 4.2005 43.0219 4.4572 42.5341 4.6048L44.2476 7.63704H42.9866L41.3694 4.72993H40.1565V7.63704H39.0302ZM41.6582 1.49555H40.1565V3.78657H41.6582C42.0625 3.78657 42.3673 3.66946 42.5727 3.43522C42.778 3.20098 42.8807 2.93626 42.8807 2.64106C42.8807 2.34586 42.778 2.08114 42.5727 1.8469C42.3673 1.61267 42.0625 1.49555 41.6582 1.49555Z" fill="black"/>
<path d="M45.6039 7.63704V0.513672H47.096L49.0309 4.56629L50.9946 0.513672H52.4674V7.63704H51.3604V2.18863L49.5603 5.86583H48.511L46.7109 2.16938V7.63704H45.6039Z" fill="black"/>
<path d="M56.1448 7.63704V0.513672H60.9386V1.49555H57.271V3.68069H60.4958V4.65293H57.271V7.63704H56.1448Z" fill="black"/>
<path d="M65.2904 7.73385C64.7192 7.73385 64.2155 7.62957 63.7791 7.421C63.3427 7.21244 62.9769 6.93328 62.6817 6.58353C62.3865 6.23378 62.1651 5.84071 62.0175 5.40432C61.8699 4.96794 61.7961 4.52193 61.7961 4.06629C61.7961 3.61065 61.8699 3.16624 62.0175 2.73306C62.1651 2.29988 62.3865 1.91002 62.6817 1.56348C62.9769 1.21694 63.3427 0.939389 63.7791 0.730823C64.2155 0.522256 64.7192 0.417969 65.2904 0.417969C65.868 0.417969 66.3749 0.522256 66.8113 0.730823C67.2477 0.939389 67.6135 1.21694 67.9087 1.56348C68.2039 1.91002 68.4253 2.29988 68.5729 2.73306C68.7205 3.16624 68.7943 3.61065 68.7943 4.06629C68.7943 4.52193 68.7205 4.96794 68.5729 5.40432C68.4253 5.84071 68.2039 6.23378 67.9087 6.58353C67.6135 6.93328 67.2477 7.21244 66.8113 7.421C66.3749 7.62957 65.868 7.73385 65.2904 7.73385ZM65.2904 6.70385C65.8038 6.70385 66.2337 6.57711 66.5803 6.32362C66.9268 6.07013 67.1899 5.74284 67.3696 5.34175C67.5493 4.94066 67.6392 4.51551 67.6392 4.06629C67.6392 3.73258 67.5878 3.4101 67.4852 3.09886C67.3825 2.78761 67.2333 2.50685 67.0375 2.25657C66.8418 2.00629 66.5979 1.80895 66.3059 1.66455C66.014 1.52016 65.6754 1.44797 65.2904 1.44797C64.9118 1.44797 64.5764 1.52016 64.2844 1.66455C63.9925 1.80895 63.7486 2.00629 63.5529 2.25657C63.3571 2.50685 63.2079 2.78761 63.1052 3.09886C63.0026 3.4101 62.9512 3.73258 62.9512 4.06629C62.9512 4.51551 63.0411 4.94066 63.2208 5.34175C63.4004 5.74284 63.6636 6.07013 64.0101 6.32362C64.3566 6.57711 64.7834 6.70385 65.2904 6.70385Z" fill="black"/>
<path d="M70.0062 7.63704V0.513672H72.6534C73.1604 0.513672 73.5888 0.611544 73.9385 0.807276C74.2883 1.00301 74.553 1.25971 74.7327 1.57737C74.9124 1.89503 75.0022 2.23997 75.0022 2.61218C75.0022 3.0614 74.8755 3.46891 74.622 3.8347C74.3685 4.2005 73.9979 4.4572 73.5102 4.6048L75.2236 7.63704H73.9626L72.3454 4.72993H71.1325V7.63704H70.0062ZM72.6342 1.49555H71.1325V3.78657H72.6342C73.0385 3.78657 73.3433 3.66946 73.5487 3.43522C73.754 3.20098 73.8567 2.93626 73.8567 2.64106C73.8567 2.34586 73.754 2.08114 73.5487 1.8469C73.3433 1.61267 73.0385 1.49555 72.6342 1.49555Z" fill="black"/>
<path d="M81.2698 7.73385C80.8462 7.73385 80.482 7.6793 80.1772 7.5702C79.8724 7.46111 79.6205 7.32153 79.4216 7.15147C79.2226 6.98141 79.0638 6.80012 78.9451 6.60759C78.8263 6.41507 78.7381 6.23378 78.6803 6.06372C78.6226 5.89365 78.5841 5.75407 78.5648 5.64498C78.5456 5.53588 78.5359 5.48133 78.5359 5.48133H79.6815C79.6815 5.48133 79.6911 5.52465 79.7103 5.61128C79.7296 5.69792 79.7681 5.8038 79.8259 5.92894C79.8836 6.05408 79.9719 6.17923 80.0906 6.30437C80.2093 6.42951 80.3665 6.53539 80.5623 6.62203C80.758 6.70866 81.0067 6.75198 81.3083 6.75198C81.7575 6.75198 82.1089 6.6461 82.3624 6.43432C82.6158 6.22254 82.7426 5.95302 82.7426 5.62573C82.7426 5.34336 82.6479 5.12356 82.4586 4.96633C82.2693 4.80911 81.9917 4.68878 81.626 4.60535L80.6826 4.38395C80.3296 4.30694 80.0039 4.19303 79.7055 4.04222C79.4071 3.89141 79.1665 3.68766 78.9836 3.43096C78.8007 3.17426 78.7092 2.85018 78.7092 2.45871C78.7092 2.03516 78.8135 1.67097 79.0221 1.36614C79.2306 1.06131 79.5194 0.82708 79.8884 0.663436C80.2574 0.499791 80.6794 0.417969 81.1543 0.417969C81.6163 0.417969 81.9982 0.486953 82.2998 0.624928C82.6014 0.762903 82.8421 0.931364 83.0217 1.13031C83.2014 1.32925 83.3346 1.52979 83.4212 1.73194C83.5079 1.93409 83.564 2.10415 83.5897 2.24212C83.6154 2.3801 83.6282 2.44909 83.6282 2.44909H82.5308C82.5308 2.44909 82.518 2.39615 82.4923 2.29026C82.4666 2.18437 82.4073 2.06083 82.3142 1.91965C82.2212 1.77847 82.08 1.65493 81.8907 1.54905C81.7014 1.44316 81.4463 1.39021 81.1254 1.39021C80.6826 1.39021 80.3521 1.49289 80.1339 1.69825C79.9157 1.9036 79.8066 2.13142 79.8066 2.3817C79.8066 2.62557 79.8997 2.8197 80.0858 2.96409C80.2719 3.10848 80.5221 3.21597 80.8366 3.28656L81.8473 3.52722C82.2196 3.61064 82.5581 3.73579 82.8629 3.90264C83.1677 4.0695 83.41 4.28929 83.5897 4.56203C83.7694 4.83477 83.8592 5.16688 83.8592 5.55834C83.8592 5.95622 83.7614 6.32041 83.5656 6.65091C83.3699 6.98141 83.0795 7.24452 82.6945 7.44025C82.3094 7.63598 81.8345 7.73385 81.2698 7.73385Z" fill="black"/>
<path d="M84.4459 7.63704L86.9294 0.513672H88.3733L90.8665 7.63704H89.6825L89.1338 6.03909H86.1786L85.6299 7.63704H84.4459ZM86.5155 5.03797H88.7969L87.661 1.71694L86.5155 5.03797Z" fill="black"/>
<path d="M91.9832 7.63704V0.513672H93.1094V6.65517H96.7096V7.63704H91.9832Z" fill="black"/>
<path d="M100.696 7.73385C100.124 7.73385 99.6207 7.62957 99.1843 7.421C98.7479 7.21244 98.3821 6.93328 98.0869 6.58353C97.7917 6.23378 97.5703 5.84071 97.4227 5.40432C97.2751 4.96794 97.2013 4.52193 97.2013 4.06629C97.2013 3.61065 97.2751 3.16624 97.4227 2.73306C97.5703 2.29988 97.7917 1.91002 98.0869 1.56348C98.3821 1.21694 98.7479 0.939389 99.1843 0.730823C99.6207 0.522256 100.124 0.417969 100.696 0.417969C101.273 0.417969 101.78 0.522256 102.217 0.730823C102.653 0.939389 103.019 1.21694 103.314 1.56348C103.609 1.91002 103.831 2.29988 103.978 2.73306C104.126 3.16624 104.2 3.61065 104.2 4.06629C104.2 4.52193 104.126 4.96794 103.978 5.40432C103.831 5.84071 103.609 6.23378 103.314 6.58353C103.019 6.93328 102.653 7.21244 102.217 7.421C101.78 7.62957 101.273 7.73385 100.696 7.73385ZM100.696 6.70385C101.209 6.70385 101.639 6.57711 101.986 6.32362C102.332 6.07013 102.595 5.74284 102.775 5.34175C102.955 4.94066 103.044 4.51551 103.044 4.06629C103.044 3.73258 102.993 3.4101 102.89 3.09886C102.788 2.78761 102.638 2.50685 102.443 2.25657C102.247 2.00629 102.003 1.80895 101.711 1.66455C101.419 1.52016 101.081 1.44797 100.696 1.44797C100.317 1.44797 99.9817 1.52016 99.6897 1.66455C99.3977 1.80895 99.1538 2.00629 98.9581 2.25657C98.7623 2.50685 98.6131 2.78761 98.5105 3.09886C98.4078 3.4101 98.3564 3.73258 98.3564 4.06629C98.3564 4.51551 98.4463 4.94066 98.626 5.34175C98.8057 5.74284 99.0688 6.07013 99.4153 6.32362C99.7619 6.57711 100.189 6.70385 100.696 6.70385Z" fill="black"/>
<path d="M105.411 7.63704V0.513672H106.432L109.926 5.63479V0.513672H111.052V7.63704H110.022L106.528 2.56405V7.63704H105.411Z" fill="black"/>
<path d="M117.204 7.73385C116.78 7.73385 116.416 7.6793 116.111 7.5702C115.806 7.46111 115.554 7.32153 115.355 7.15147C115.157 6.98141 114.998 6.80012 114.879 6.60759C114.76 6.41507 114.672 6.23378 114.614 6.06372C114.556 5.89365 114.518 5.75407 114.499 5.64498C114.479 5.53588 114.47 5.48133 114.47 5.48133H115.615C115.615 5.48133 115.625 5.52465 115.644 5.61128C115.663 5.69792 115.702 5.8038 115.76 5.92894C115.818 6.05408 115.906 6.17923 116.024 6.30437C116.143 6.42951 116.3 6.53539 116.496 6.62203C116.692 6.70866 116.941 6.75198 117.242 6.75198C117.691 6.75198 118.043 6.6461 118.296 6.43432C118.55 6.22254 118.676 5.95302 118.676 5.62573C118.676 5.34336 118.582 5.12356 118.393 4.96633C118.203 4.80911 117.926 4.68878 117.56 4.60535L116.616 4.38395C116.264 4.30694 115.938 4.19303 115.639 4.04222C115.341 3.89141 115.1 3.68766 114.917 3.43096C114.735 3.17426 114.643 2.85018 114.643 2.45871C114.643 2.03516 114.747 1.67097 114.956 1.36614C115.165 1.06131 115.453 0.82708 115.822 0.663436C116.191 0.499791 116.613 0.417969 117.088 0.417969C117.55 0.417969 117.932 0.486953 118.234 0.624928C118.535 0.762903 118.776 0.931364 118.956 1.13031C119.135 1.32925 119.268 1.52979 119.355 1.73194C119.442 1.93409 119.498 2.10415 119.524 2.24212C119.549 2.3801 119.562 2.44909 119.562 2.44909H118.465C118.465 2.44909 118.452 2.39615 118.426 2.29026C118.401 2.18437 118.341 2.06083 118.248 1.91965C118.155 1.77847 118.014 1.65493 117.825 1.54905C117.635 1.44316 117.38 1.39021 117.059 1.39021C116.616 1.39021 116.286 1.49289 116.068 1.69825C115.85 1.9036 115.741 2.13142 115.741 2.3817C115.741 2.62557 115.834 2.8197 116.02 2.96409C116.206 3.10848 116.456 3.21597 116.771 3.28656L117.781 3.52722C118.153 3.61064 118.492 3.73579 118.797 3.90264C119.102 4.0695 119.344 4.28929 119.524 4.56203C119.703 4.83477 119.793 5.16688 119.793 5.55834C119.793 5.95622 119.695 6.32041 119.5 6.65091C119.304 6.98141 119.013 7.24452 118.628 7.44025C118.243 7.63598 117.768 7.73385 117.204 7.73385Z" fill="black"/>
<path d="M123.711 7.7333C123.165 7.7333 122.684 7.62902 122.267 7.42045C121.849 7.21189 121.524 6.90705 121.29 6.50596C121.055 6.10487 120.938 5.61233 120.938 5.02835V0.513672H122.064V5.02835C122.064 5.4904 122.199 5.88027 122.469 6.19793C122.738 6.5156 123.152 6.67442 123.711 6.67442C124.275 6.67442 124.692 6.5156 124.962 6.19793C125.231 5.88027 125.366 5.4904 125.366 5.02835V0.513672H126.492V5.02835C126.492 5.61233 126.375 6.10487 126.141 6.50596C125.907 6.90705 125.58 7.21189 125.159 7.42045C124.739 7.62902 124.256 7.7333 123.711 7.7333Z" fill="black"/>
<path d="M131.133 7.73385C130.562 7.73385 130.063 7.62957 129.636 7.421C129.21 7.21244 128.853 6.93328 128.568 6.58353C128.282 6.23378 128.067 5.84231 127.923 5.40913C127.778 4.97595 127.706 4.53155 127.706 4.07591C127.706 3.62027 127.778 3.17426 127.923 2.73787C128.067 2.30149 128.282 1.90842 128.568 1.55867C128.853 1.20892 129.21 0.931366 129.636 0.726008C130.063 0.52065 130.562 0.417969 131.133 0.417969C131.602 0.417969 132.004 0.478932 132.341 0.600863C132.678 0.722795 132.961 0.878418 133.188 1.06773C133.416 1.25705 133.599 1.45759 133.737 1.66937C133.875 1.88114 133.978 2.08329 134.045 2.27582C134.112 2.46834 134.159 2.62396 134.185 2.74269C134.21 2.86141 134.223 2.92077 134.223 2.92077H133.097C133.097 2.92077 133.086 2.87104 133.063 2.77157C133.041 2.6721 132.993 2.54856 132.919 2.40095C132.845 2.25335 132.736 2.10736 132.592 1.96297C132.447 1.81858 132.258 1.69665 132.024 1.59717C131.789 1.4977 131.496 1.44797 131.143 1.44797C130.764 1.44797 130.432 1.52177 130.146 1.66937C129.861 1.81697 129.622 2.01591 129.429 2.26619C129.237 2.51647 129.094 2.79884 129.001 3.11329C128.908 3.42775 128.861 3.74862 128.861 4.07591C128.861 4.4032 128.908 4.72247 129.001 5.03371C129.094 5.34496 129.237 5.62733 129.429 5.88081C129.622 6.1343 129.861 6.33485 130.146 6.48245C130.432 6.63005 130.764 6.70385 131.143 6.70385C131.496 6.70385 131.789 6.65412 132.024 6.55465C132.258 6.45518 132.447 6.33164 132.592 6.18404C132.736 6.03644 132.845 5.88883 132.919 5.74123C132.993 5.59363 133.041 5.4701 133.063 5.37063C133.086 5.27116 133.097 5.22142 133.097 5.22142H134.223C134.223 5.22142 134.21 5.28239 134.185 5.40432C134.159 5.52626 134.112 5.68188 134.045 5.87119C133.978 6.06051 133.875 6.26265 133.737 6.47763C133.599 6.69262 133.416 6.89477 133.188 7.08408C132.961 7.2734 132.678 7.42902 132.341 7.55095C132.004 7.67289 131.602 7.73385 131.133 7.73385Z" fill="black"/>
<path d="M138.613 7.73385C138.042 7.73385 137.543 7.62957 137.116 7.421C136.689 7.21244 136.333 6.93328 136.047 6.58353C135.762 6.23378 135.547 5.84231 135.403 5.40913C135.258 4.97595 135.186 4.53155 135.186 4.07591C135.186 3.62027 135.258 3.17426 135.403 2.73787C135.547 2.30149 135.762 1.90842 136.047 1.55867C136.333 1.20892 136.689 0.931366 137.116 0.726008C137.543 0.52065 138.042 0.417969 138.613 0.417969C139.081 0.417969 139.484 0.478932 139.821 0.600863C140.158 0.722795 140.44 0.878418 140.668 1.06773C140.896 1.25705 141.079 1.45759 141.217 1.66937C141.355 1.88114 141.457 2.08329 141.525 2.27582C141.592 2.46834 141.639 2.62396 141.664 2.74269C141.69 2.86141 141.703 2.92077 141.703 2.92077H140.577C140.577 2.92077 140.565 2.87104 140.543 2.77157C140.52 2.6721 140.472 2.54856 140.399 2.40095C140.325 2.25335 140.216 2.10736 140.071 1.96297C139.927 1.81858 139.737 1.69665 139.503 1.59717C139.269 1.4977 138.975 1.44797 138.622 1.44797C138.244 1.44797 137.912 1.52177 137.626 1.66937C137.341 1.81697 137.102 2.01591 136.909 2.26619C136.716 2.51647 136.574 2.79884 136.481 3.11329C136.388 3.42775 136.341 3.74862 136.341 4.07591C136.341 4.4032 136.388 4.72247 136.481 5.03371C136.574 5.34496 136.716 5.62733 136.909 5.88081C137.102 6.1343 137.341 6.33485 137.626 6.48245C137.912 6.63005 138.244 6.70385 138.622 6.70385C138.975 6.70385 139.269 6.65412 139.503 6.55465C139.737 6.45518 139.927 6.33164 140.071 6.18404C140.216 6.03644 140.325 5.88883 140.399 5.74123C140.472 5.59363 140.52 5.4701 140.543 5.37063C140.565 5.27116 140.577 5.22142 140.577 5.22142H141.703C141.703 5.22142 141.69 5.28239 141.664 5.40432C141.639 5.52626 141.592 5.68188 141.525 5.87119C141.457 6.06051 141.355 6.26265 141.217 6.47763C141.079 6.69262 140.896 6.89477 140.668 7.08408C140.44 7.2734 140.158 7.42902 139.821 7.55095C139.484 7.67289 139.081 7.73385 138.613 7.73385Z" fill="black"/>
<path d="M142.915 7.63704V0.513672H147.564V1.49555H144.041V3.52666H147.122V4.49891H144.041V6.65517H147.613V7.63704H142.915Z" fill="black"/>
<path d="M151.347 7.73385C150.924 7.73385 150.559 7.6793 150.255 7.5702C149.95 7.46111 149.698 7.32153 149.499 7.15147C149.3 6.98141 149.141 6.80012 149.022 6.60759C148.904 6.41507 148.816 6.23378 148.758 6.06372C148.7 5.89365 148.661 5.75407 148.642 5.64498C148.623 5.53588 148.613 5.48133 148.613 5.48133H149.759C149.759 5.48133 149.768 5.52465 149.788 5.61128C149.807 5.69792 149.846 5.8038 149.903 5.92894C149.961 6.05408 150.049 6.17923 150.168 6.30437C150.287 6.42951 150.444 6.53539 150.64 6.62203C150.835 6.70866 151.084 6.75198 151.386 6.75198C151.835 6.75198 152.186 6.6461 152.44 6.43432C152.693 6.22254 152.82 5.95302 152.82 5.62573C152.82 5.34336 152.725 5.12356 152.536 4.96633C152.347 4.80911 152.069 4.68878 151.703 4.60535L150.76 4.38395C150.407 4.30694 150.081 4.19303 149.783 4.04222C149.485 3.89141 149.244 3.68766 149.061 3.43096C148.878 3.17426 148.787 2.85018 148.787 2.45871C148.787 2.03516 148.891 1.67097 149.099 1.36614C149.308 1.06131 149.597 0.82708 149.966 0.663436C150.335 0.499791 150.757 0.417969 151.232 0.417969C151.694 0.417969 152.076 0.486953 152.377 0.624928C152.679 0.762903 152.919 0.931364 153.099 1.13031C153.279 1.32925 153.412 1.52979 153.499 1.73194C153.585 1.93409 153.641 2.10415 153.667 2.24212C153.693 2.3801 153.706 2.44909 153.706 2.44909H152.608C152.608 2.44909 152.595 2.39615 152.57 2.29026C152.544 2.18437 152.485 2.06083 152.392 1.91965C152.299 1.77847 152.157 1.65493 151.968 1.54905C151.779 1.44316 151.524 1.39021 151.203 1.39021C150.76 1.39021 150.429 1.49289 150.211 1.69825C149.993 1.9036 149.884 2.13142 149.884 2.3817C149.884 2.62557 149.977 2.8197 150.163 2.96409C150.349 3.10848 150.6 3.21597 150.914 3.28656L151.925 3.52722C152.297 3.61064 152.635 3.73579 152.94 3.90264C153.245 4.0695 153.487 4.28929 153.667 4.56203C153.847 4.83477 153.937 5.16688 153.937 5.55834C153.937 5.95622 153.839 6.32041 153.643 6.65091C153.447 6.98141 153.157 7.24452 152.772 7.44025C152.387 7.63598 151.912 7.73385 151.347 7.73385Z" fill="black"/>
<path d="M157.595 7.73385C157.171 7.73385 156.807 7.6793 156.502 7.5702C156.197 7.46111 155.946 7.32153 155.747 7.15147C155.548 6.98141 155.389 6.80012 155.27 6.60759C155.151 6.41507 155.063 6.23378 155.005 6.06372C154.948 5.89365 154.909 5.75407 154.89 5.64498C154.871 5.53588 154.861 5.48133 154.861 5.48133H156.006C156.006 5.48133 156.016 5.52465 156.035 5.61128C156.055 5.69792 156.093 5.8038 156.151 5.92894C156.209 6.05408 156.297 6.17923 156.416 6.30437C156.534 6.42951 156.692 6.53539 156.887 6.62203C157.083 6.70866 157.332 6.75198 157.633 6.75198C158.083 6.75198 158.434 6.6461 158.687 6.43432C158.941 6.22254 159.068 5.95302 159.068 5.62573C159.068 5.34336 158.973 5.12356 158.784 4.96633C158.594 4.80911 158.317 4.68878 157.951 4.60535L157.008 4.38395C156.655 4.30694 156.329 4.19303 156.031 4.04222C155.732 3.89141 155.491 3.68766 155.309 3.43096C155.126 3.17426 155.034 2.85018 155.034 2.45871C155.034 2.03516 155.139 1.67097 155.347 1.36614C155.556 1.06131 155.844 0.82708 156.213 0.663436C156.582 0.499791 157.004 0.417969 157.479 0.417969C157.941 0.417969 158.323 0.486953 158.625 0.624928C158.926 0.762903 159.167 0.931364 159.347 1.13031C159.526 1.32925 159.66 1.52979 159.746 1.73194C159.833 1.93409 159.889 2.10415 159.915 2.24212C159.94 2.3801 159.953 2.44909 159.953 2.44909H158.856C158.856 2.44909 158.843 2.39615 158.817 2.29026C158.792 2.18437 158.732 2.06083 158.639 1.91965C158.546 1.77847 158.405 1.65493 158.216 1.54905C158.026 1.44316 157.771 1.39021 157.45 1.39021C157.008 1.39021 156.677 1.49289 156.459 1.69825C156.241 1.9036 156.132 2.13142 156.132 2.3817C156.132 2.62557 156.225 2.8197 156.411 2.96409C156.597 3.10848 156.847 3.21597 157.162 3.28656L158.172 3.52722C158.545 3.61064 158.883 3.73579 159.188 3.90264C159.493 4.0695 159.735 4.28929 159.915 4.56203C160.094 4.83477 160.184 5.16688 160.184 5.55834C160.184 5.95622 160.086 6.32041 159.891 6.65091C159.695 6.98141 159.405 7.24452 159.019 7.44025C158.634 7.63598 158.16 7.73385 157.595 7.73385Z" fill="black"/>
</svg>
