<svg width="20" height="20" viewBox="0 0 20 20" fill="none" xmlns="http://www.w3.org/2000/svg">
<path fill-rule="evenodd" clip-rule="evenodd" d="M10 6.87467C8.27413 6.87467 6.87502 8.27378 6.87502 9.99967C6.87502 11.7256 8.27413 13.1247 10 13.1247C11.7259 13.1247 13.125 11.7256 13.125 9.99967C13.125 8.27378 11.7259 6.87467 10 6.87467ZM8.12502 9.99967C8.12502 8.96414 8.96449 8.12467 10 8.12467C11.0356 8.12467 11.875 8.96414 11.875 9.99967C11.875 11.0352 11.0356 11.8747 10 11.8747C8.96449 11.8747 8.12502 11.0352 8.12502 9.99967Z" fill="#475467"/>
<path fill-rule="evenodd" clip-rule="evenodd" d="M10 2.70801C6.23824 2.70801 3.70443 4.96151 2.23383 6.87206L2.2073 6.90651C1.87472 7.33845 1.5684 7.73628 1.36059 8.20667C1.13806 8.7104 1.04169 9.25942 1.04169 9.99967C1.04169 10.7399 1.13806 11.2889 1.36059 11.7927C1.56841 12.2631 1.87472 12.6609 2.20731 13.0928L2.23383 13.1273C3.70443 15.0378 6.23824 17.2913 10 17.2913C13.7618 17.2913 16.2956 15.0378 17.7662 13.1273L17.7927 13.0929C18.1253 12.6609 18.4316 12.2631 18.6394 11.7927C18.862 11.2889 18.9584 10.7399 18.9584 9.99967C18.9584 9.25942 18.862 8.7104 18.6394 8.20667C18.4316 7.73627 18.1253 7.33844 17.7927 6.90649L17.7662 6.87206C16.2956 4.96151 13.7618 2.70801 10 2.70801ZM3.22437 7.63451C4.58222 5.87044 6.79199 3.95801 10 3.95801C13.2081 3.95801 15.4178 5.87044 16.7757 7.63451C17.1412 8.10933 17.3552 8.39305 17.4961 8.7118C17.6277 9.00969 17.7084 9.37379 17.7084 9.99967C17.7084 10.6256 17.6277 10.9897 17.4961 11.2876C17.3552 11.6063 17.1412 11.89 16.7757 12.3648C15.4178 14.1289 13.2081 16.0413 10 16.0413C6.79199 16.0413 4.58222 14.1289 3.22437 12.3648C2.85888 11.89 2.6448 11.6063 2.50399 11.2876C2.37239 10.9897 2.29169 10.6256 2.29169 9.99967C2.29169 9.37379 2.37239 9.00969 2.50399 8.7118C2.6448 8.39306 2.85888 8.10933 3.22437 7.63451Z" fill="#475467"/>
</svg>
