<svg width="63" height="63" viewBox="0 0 63 63" fill="none" xmlns="http://www.w3.org/2000/svg">
<g filter="url(#filter0_b_1300_3245)">
<rect width="62.9726" height="62.9726" rx="12.5945" fill="url(#paint0_linear_1300_3245)" fill-opacity="0.8"/>
<rect x="0.250043" y="0.250043" width="62.4725" height="62.4725" rx="12.3445" stroke="white" stroke-opacity="0.6" stroke-width="0.500085"/>
<g clip-path="url(#clip0_1300_3245)">
<path d="M33.7416 12.8242H33.3704C32.964 12.8242 32.6346 13.1536 32.6346 13.56V29.8733C32.6346 30.2797 32.964 30.6091 33.3704 30.6091L49.6837 30.6091C50.09 30.6091 50.4195 30.2797 50.4195 29.8733V29.5021C50.4195 20.3461 42.8976 12.8242 33.7416 12.8242Z" fill="#47CD89"/>
<path d="M18.9554 45.8523C18.6545 46.1532 18.67 46.6469 19.0023 46.9127C21.8371 49.1803 25.4166 50.6052 29.3151 50.6052C38.4712 50.6052 45.9192 43.0833 45.9192 33.9273V33.5561C45.9192 33.1497 45.5898 32.8203 45.1835 32.8203L32.2921 32.8203C32.097 32.8203 31.9098 32.8978 31.7719 33.0358L18.9554 45.8523Z" fill="#3D8CF5"/>
<path d="M30.423 18.06C30.423 17.6536 30.0936 17.3242 29.6872 17.3242H29.3161C26.0105 17.3242 22.9361 18.3059 20.3474 19.9792C19.9667 20.2253 19.9245 20.7576 20.245 21.0781L29.167 30.0001C29.6305 30.4636 30.423 30.1353 30.423 29.4798V18.06Z" fill="#FE6790"/>
<path d="M18.4305 22.387C18.1487 22.1053 17.6926 22.0979 17.4147 22.3835C14.5057 25.3733 12.6423 29.4392 12.6423 33.9253C12.6423 37.8239 14.0672 41.4033 16.3347 44.2382C16.6005 44.5705 17.0943 44.5859 17.3952 44.2851L28.3416 33.3386C28.6289 33.0513 28.6289 32.5855 28.3416 32.2981L18.4305 22.387Z" fill="#FFD38B"/>
</g>
</g>
<defs>
<filter id="filter0_b_1300_3245" x="-2.00034" y="-2.00034" width="66.9733" height="66.9733" filterUnits="userSpaceOnUse" color-interpolation-filters="sRGB">
<feFlood flood-opacity="0" result="BackgroundImageFix"/>
<feGaussianBlur in="BackgroundImageFix" stdDeviation="1.00017"/>
<feComposite in2="SourceAlpha" operator="in" result="effect1_backgroundBlur_1300_3245"/>
<feBlend mode="normal" in="SourceGraphic" in2="effect1_backgroundBlur_1300_3245" result="shape"/>
</filter>
<linearGradient id="paint0_linear_1300_3245" x1="4.17051e-07" y1="62.9726" x2="64.475" y2="60.6382" gradientUnits="userSpaceOnUse">
<stop stop-color="white"/>
<stop offset="1" stop-color="white" stop-opacity="0.59"/>
</linearGradient>
<clipPath id="clip0_1300_3245">
<rect width="37.7836" height="37.7836" fill="white" transform="translate(12.6356 12.8252)"/>
</clipPath>
</defs>
</svg>
