<svg width="39" height="39" viewBox="0 0 39 39" fill="none" xmlns="http://www.w3.org/2000/svg">
<g clip-path="url(#clip0_2216_3247)">
<path d="M21.7416 0.824219L21.3704 0.824219C20.964 0.824219 20.6346 1.15363 20.6346 1.55998L20.6346 17.8733C20.6346 18.2797 20.964 18.6091 21.3704 18.6091L37.6837 18.6091C38.09 18.6091 38.4195 18.2797 38.4195 17.8733V17.5021C38.4195 8.3461 30.8976 0.824219 21.7416 0.824219Z" fill="#47CD89"/>
<path d="M6.95539 33.8523C6.65453 34.1532 6.66998 34.6469 7.00225 34.9127C9.83707 37.1803 13.4166 38.6052 17.3151 38.6052C26.4712 38.6052 33.9192 31.0833 33.9192 21.9273V21.5561C33.9192 21.1497 33.5898 20.8203 33.1835 20.8203H20.2921C20.097 20.8203 19.9098 20.8978 19.7719 21.0358L6.95539 33.8523Z" fill="#3D8CF5"/>
<path d="M18.423 6.05998C18.423 5.65363 18.0936 5.32422 17.6872 5.32422H17.3161C14.0105 5.32422 10.9361 6.30588 8.34739 7.97921C7.96673 8.22527 7.92447 8.75757 8.24498 9.07807L17.167 18.0001C17.6305 18.4636 18.423 18.1353 18.423 17.4798V6.05998Z" fill="#FE6790"/>
<path d="M6.43049 10.387C6.14871 10.1053 5.69258 10.0979 5.41469 10.3835C2.50569 13.3733 0.642273 17.4392 0.642273 21.9253C0.642273 25.8239 2.06717 29.4033 4.33471 32.2382C4.60049 32.5705 5.09428 32.5859 5.39515 32.2851L16.3416 21.3386C16.6289 21.0513 16.6289 20.5855 16.3416 20.2981L6.43049 10.387Z" fill="#FFD38B"/>
</g>
<defs>
<clipPath id="clip0_2216_3247">
<rect width="37.7836" height="37.7836" fill="white" transform="translate(0.63562 0.825195)"/>
</clipPath>
</defs>
</svg>
