<svg xmlns="http://www.w3.org/2000/svg" width="26" height="26" viewBox="0 0 26 26" fill="none">
  <path opacity="0.9" d="M13.2189 0.218855C13.2189 0.0979848 13.1209 0 13 0C12.8791 0 12.7811 0.0979848 12.7811 0.218855C12.7811 7.15682 7.15682 12.7811 0.218855 12.7811C0.0979848 12.7811 0 12.8791 0 13C0 13.1209 0.0979848 13.2189 0.218855 13.2189C7.15682 13.2189 12.7811 18.8432 12.7811 25.7811C12.7811 25.902 12.8791 26 13 26C13.1209 26 13.2189 25.902 13.2189 25.7811C13.2189 18.8432 18.8432 13.2189 25.7811 13.2189C25.902 13.2189 26 13.1209 26 13C26 12.8791 25.902 12.7811 25.7811 12.7811C18.8432 12.7811 13.2189 7.15682 13.2189 0.218855Z" fill="white"/>
</svg>