<svg xmlns="http://www.w3.org/2000/svg" width="14" height="14" viewBox="0 0 14 14" fill="none">
  <path opacity="0.9" d="M7.11785 0.117845C7.11785 0.0527611 7.06508 0 7 0C6.93492 0 6.88215 0.0527611 6.88215 0.117845C6.88215 3.85367 3.85367 6.88215 0.117845 6.88215C0.0527611 6.88215 0 6.93492 0 7C0 7.06508 0.0527611 7.11785 0.117845 7.11785C3.85367 7.11785 6.88215 10.1463 6.88215 13.8822C6.88215 13.9472 6.93492 14 7 14C7.06508 14 7.11785 13.9472 7.11785 13.8822C7.11785 10.1463 10.1463 7.11785 13.8822 7.11785C13.9472 7.11785 14 7.06508 14 7C14 6.93492 13.9472 6.88215 13.8822 6.88215C10.1463 6.88215 7.11785 3.85367 7.11785 0.117845Z" fill="white"/>
</svg>