<svg width="76" height="75" viewBox="0 0 76 75" fill="none" xmlns="http://www.w3.org/2000/svg">
<path d="M75.2046 37.2667C75.2046 57.8205 58.5424 74.4826 37.9887 74.4826C17.4349 74.4826 0.772751 57.8205 0.772751 37.2667C0.772751 16.7129 17.4349 0.0507812 37.9887 0.0507812C58.5424 0.0507812 75.2046 16.7129 75.2046 37.2667ZM10.0767 37.2667C10.0767 52.682 22.5733 65.1786 37.9887 65.1786C53.404 65.1786 65.9006 52.682 65.9006 37.2667C65.9006 21.8514 53.404 9.35476 37.9887 9.35476C22.5733 9.35476 10.0767 21.8514 10.0767 37.2667Z" fill="#EAECF0"/>
<path d="M37.9887 0.0507813C45.8479 0.0507813 53.5054 2.53885 59.8636 7.15839C66.2219 11.7779 70.9545 18.2918 73.3831 25.7663L64.5345 28.6414C62.713 23.0355 59.1636 18.1501 54.3949 14.6855C49.6262 11.2208 43.8831 9.35476 37.9887 9.35476V0.0507813Z" fill="#0665E4"/>
<path d="M73.3831 25.7663C75.504 32.2939 75.7785 39.2808 74.1763 45.9546C72.5741 52.6284 69.1575 58.7291 64.3043 63.5823C59.4511 68.4355 53.3504 71.8521 46.6766 73.4543C40.0027 75.0566 33.0159 74.782 26.4883 72.6611L29.3634 63.8125C34.2591 65.4032 39.4992 65.6091 44.5046 64.4074C49.5099 63.2057 54.0855 60.6433 57.7254 57.0034C61.3653 53.3635 63.9277 48.788 65.1294 43.7826C66.3311 38.7772 66.1252 33.5371 64.5345 28.6414L73.3831 25.7663Z" fill="#1476F9"/>
<path d="M26.4883 72.6611C19.0137 70.2325 12.4999 65.4999 7.88036 59.1416L15.4074 53.6729C18.8721 58.4416 23.7575 61.991 29.3634 63.8125L26.4883 72.6611Z" fill="#3899FA"/>
<path d="M7.88036 59.1416C2.31653 51.4837 -0.120165 41.9934 1.06621 32.6023L10.2968 33.7684C9.40704 40.8117 11.2346 47.9294 15.4074 53.6729L7.88036 59.1416Z" fill="#84CAFF"/>
<path d="M1.05015 32.7312C1.91081 25.7217 4.74812 19.1018 9.23068 13.6446C13.7132 8.18746 19.656 4.11837 26.3648 1.91262L29.2708 10.7511C24.2392 12.4054 19.7821 15.4573 16.4202 19.5501C13.0583 23.643 10.9303 28.608 10.2848 33.8651L1.05015 32.7312Z" fill="#95C7F9"/>
<path d="M26.1799 1.97396C30.0694 0.672565 34.1472 0.0230531 38.2485 0.0516883L38.1835 9.35544C35.1076 9.33396 32.0492 9.8211 29.1321 10.7971L26.1799 1.97396Z" fill="#EAECF0"/>
</svg>
