<svg width="20" height="20" viewBox="0 0 20 20" fill="none" xmlns="http://www.w3.org/2000/svg">
<path fill-rule="evenodd" clip-rule="evenodd" d="M10 6.87565C8.27413 6.87565 6.87502 8.27476 6.87502 10.0007C6.87502 11.7265 8.27413 13.1257 10 13.1257C11.7259 13.1257 13.125 11.7265 13.125 10.0007C13.125 8.27476 11.7259 6.87565 10 6.87565ZM8.12502 10.0007C8.12502 8.96512 8.96449 8.12565 10 8.12565C11.0356 8.12565 11.875 8.96512 11.875 10.0007C11.875 11.0362 11.0356 11.8757 10 11.8757C8.96449 11.8757 8.12502 11.0362 8.12502 10.0007Z" fill="#475467"/>
<path fill-rule="evenodd" clip-rule="evenodd" d="M10 2.70898C6.23824 2.70898 3.70443 4.96248 2.23383 6.87304L2.2073 6.90748C1.87472 7.33943 1.5684 7.73725 1.36059 8.20765C1.13806 8.71138 1.04169 9.26039 1.04169 10.0007C1.04169 10.7409 1.13806 11.2899 1.36059 11.7937C1.56841 12.2641 1.87472 12.6619 2.20731 13.0938L2.23383 13.1283C3.70443 15.0388 6.23824 17.2923 10 17.2923C13.7618 17.2923 16.2956 15.0388 17.7662 13.1283L17.7927 13.0938C18.1253 12.6619 18.4316 12.2641 18.6394 11.7937C18.862 11.2899 18.9584 10.7409 18.9584 10.0007C18.9584 9.26039 18.862 8.71138 18.6394 8.20765C18.4316 7.73724 18.1253 7.33942 17.7927 6.90746L17.7662 6.87304C16.2956 4.96248 13.7618 2.70898 10 2.70898ZM3.22437 7.63548C4.58222 5.87142 6.79199 3.95898 10 3.95898C13.2081 3.95898 15.4178 5.87142 16.7757 7.63548C17.1412 8.11031 17.3552 8.39403 17.4961 8.71277C17.6277 9.01066 17.7084 9.37476 17.7084 10.0007C17.7084 10.6265 17.6277 10.9906 17.4961 11.2885C17.3552 11.6073 17.1412 11.891 16.7757 12.3658C15.4178 14.1299 13.2081 16.0423 10 16.0423C6.79199 16.0423 4.58222 14.1299 3.22437 12.3658C2.85888 11.891 2.6448 11.6073 2.50399 11.2885C2.37239 10.9906 2.29169 10.6265 2.29169 10.0007C2.29169 9.37476 2.37239 9.01067 2.50399 8.71277C2.6448 8.39403 2.85888 8.11031 3.22437 7.63548Z" fill="#475467"/>
</svg>
