<svg width="161" height="8" viewBox="0 0 161 8" fill="none" xmlns="http://www.w3.org/2000/svg">
<path d="M0.130615 7.63704V0.513672H2.80669C3.36501 0.513672 3.83028 0.627586 4.20249 0.855405C4.5747 1.08322 4.85386 1.37522 5.03997 1.73139C5.22608 2.08755 5.31913 2.46137 5.31913 2.85283C5.31913 3.2443 5.22608 3.61972 5.03997 3.9791C4.85386 4.33847 4.5747 4.63207 4.20249 4.85989C3.83028 5.08771 3.36501 5.20162 2.80669 5.20162H1.25688V7.63704H0.130615ZM2.80669 1.49555H1.25688V4.21975H2.80669C3.11473 4.21975 3.37143 4.15397 3.57679 4.02241C3.78215 3.89085 3.93617 3.7208 4.03884 3.51223C4.14152 3.30366 4.19286 3.08707 4.19286 2.86246C4.19286 2.63144 4.14152 2.41164 4.03884 2.20307C3.93617 1.9945 3.78215 1.82444 3.57679 1.69288C3.37143 1.56132 3.11473 1.49555 2.80669 1.49555Z" fill="black"/>
<path d="M6.44482 7.63704V0.513672H7.57109V6.65517H11.1713V7.63704H6.44482Z" fill="black"/>
<path d="M12.1628 7.63704L14.6464 0.513672H16.0903L18.5835 7.63704H17.3995L16.8508 6.03909H13.8956L13.3469 7.63704H12.1628ZM14.2325 5.03797H16.5139L15.378 1.71694L14.2325 5.03797Z" fill="black"/>
<path d="M20.692 7.63704V1.49555H18.478V0.513672H24.0227V1.49555H21.8087V7.63704H20.692Z" fill="black"/>
<path d="M25.168 7.63704V0.513672H29.9618V1.49555H26.2942V3.68069H29.519V4.65293H26.2942V7.63704H25.168Z" fill="black"/>
<path d="M34.3127 7.73287C33.7415 7.73287 33.2377 7.62859 32.8014 7.42003C32.365 7.21146 31.9992 6.9323 31.704 6.58255C31.4088 6.2328 31.1874 5.83973 31.0398 5.40335C30.8922 4.96696 30.8184 4.52095 30.8184 4.06531C30.8184 3.60967 30.8922 3.16526 31.0398 2.73208C31.1874 2.2989 31.4088 1.90905 31.704 1.5625C31.9992 1.21596 32.365 0.938413 32.8014 0.729846C33.2377 0.521279 33.7415 0.416992 34.3127 0.416992C34.8902 0.416992 35.3972 0.521279 35.8336 0.729846C36.27 0.938413 36.6358 1.21596 36.931 1.5625C37.2262 1.90905 37.4476 2.2989 37.5952 2.73208C37.7428 3.16526 37.8166 3.60967 37.8166 4.06531C37.8166 4.52095 37.7428 4.96696 37.5952 5.40335C37.4476 5.83973 37.2262 6.2328 36.931 6.58255C36.6358 6.9323 36.27 7.21146 35.8336 7.42003C35.3972 7.62859 34.8902 7.73287 34.3127 7.73287ZM34.3127 6.70288C34.8261 6.70288 35.256 6.57613 35.6026 6.32264C35.9491 6.06915 36.2122 5.74187 36.3919 5.34078C36.5716 4.93968 36.6615 4.51453 36.6615 4.06531C36.6615 3.7316 36.6101 3.40912 36.5074 3.09788C36.4048 2.78663 36.2556 2.50587 36.0598 2.25559C35.8641 2.00531 35.6202 1.80797 35.3282 1.66358C35.0362 1.51918 34.6977 1.44699 34.3127 1.44699C33.934 1.44699 33.5987 1.51918 33.3067 1.66358C33.0147 1.80797 32.7709 2.00531 32.5751 2.25559C32.3794 2.50587 32.2302 2.78663 32.1275 3.09788C32.0248 3.40912 31.9735 3.7316 31.9735 4.06531C31.9735 4.51453 32.0633 4.93968 32.243 5.34078C32.4227 5.74187 32.6858 6.06915 33.0324 6.32264C33.3789 6.57613 33.8057 6.70288 34.3127 6.70288Z" fill="black"/>
<path d="M39.0303 7.63704V0.513672H41.6775C42.1845 0.513672 42.6128 0.611544 42.9626 0.807276C43.3123 1.00301 43.577 1.25971 43.7567 1.57737C43.9364 1.89503 44.0263 2.23997 44.0263 2.61218C44.0263 3.0614 43.8995 3.46891 43.646 3.8347C43.3925 4.2005 43.0219 4.4572 42.5342 4.6048L44.2477 7.63704H42.9866L41.3694 4.72993H40.1565V7.63704H39.0303ZM41.6582 1.49555H40.1565V3.78657H41.6582C42.0625 3.78657 42.3674 3.66946 42.5727 3.43522C42.7781 3.20098 42.8807 2.93626 42.8807 2.64106C42.8807 2.34586 42.7781 2.08114 42.5727 1.8469C42.3674 1.61267 42.0625 1.49555 41.6582 1.49555Z" fill="black"/>
<path d="M45.604 7.63704V0.513672H47.0961L49.0309 4.56629L50.9947 0.513672H52.4675V7.63704H51.3605V2.18863L49.5604 5.86583H48.5111L46.711 2.16938V7.63704H45.604Z" fill="black"/>
<path d="M56.1448 7.63704V0.513672H60.9386V1.49555H57.271V3.68069H60.4958V4.65293H57.271V7.63704H56.1448Z" fill="black"/>
<path d="M65.2904 7.73287C64.7193 7.73287 64.2155 7.62859 63.7791 7.42003C63.3427 7.21146 62.9769 6.9323 62.6817 6.58255C62.3865 6.2328 62.1651 5.83973 62.0175 5.40335C61.8699 4.96696 61.7961 4.52095 61.7961 4.06531C61.7961 3.60967 61.8699 3.16526 62.0175 2.73208C62.1651 2.2989 62.3865 1.90905 62.6817 1.5625C62.9769 1.21596 63.3427 0.938413 63.7791 0.729846C64.2155 0.521279 64.7193 0.416992 65.2904 0.416992C65.868 0.416992 66.375 0.521279 66.8114 0.729846C67.2478 0.938413 67.6136 1.21596 67.9088 1.5625C68.204 1.90905 68.4254 2.2989 68.573 2.73208C68.7206 3.16526 68.7944 3.60967 68.7944 4.06531C68.7944 4.52095 68.7206 4.96696 68.573 5.40335C68.4254 5.83973 68.204 6.2328 67.9088 6.58255C67.6136 6.9323 67.2478 7.21146 66.8114 7.42003C66.375 7.62859 65.868 7.73287 65.2904 7.73287ZM65.2904 6.70288C65.8038 6.70288 66.2338 6.57613 66.5804 6.32264C66.9269 6.06915 67.19 5.74187 67.3697 5.34078C67.5494 4.93968 67.6392 4.51453 67.6392 4.06531C67.6392 3.7316 67.5879 3.40912 67.4852 3.09788C67.3825 2.78663 67.2333 2.50587 67.0376 2.25559C66.8419 2.00531 66.598 1.80797 66.306 1.66358C66.014 1.51918 65.6755 1.44699 65.2904 1.44699C64.9118 1.44699 64.5765 1.51918 64.2845 1.66358C63.9925 1.80797 63.7486 2.00531 63.5529 2.25559C63.3572 2.50587 63.208 2.78663 63.1053 3.09788C63.0026 3.40912 62.9513 3.7316 62.9513 4.06531C62.9513 4.51453 63.0411 4.93968 63.2208 5.34078C63.4005 5.74187 63.6636 6.06915 64.0102 6.32264C64.3567 6.57613 64.7835 6.70288 65.2904 6.70288Z" fill="black"/>
<path d="M70.0063 7.63704V0.513672H72.6536C73.1605 0.513672 73.5889 0.611544 73.9387 0.807276C74.2884 1.00301 74.5531 1.25971 74.7328 1.57737C74.9125 1.89503 75.0023 2.23997 75.0023 2.61218C75.0023 3.0614 74.8756 3.46891 74.6221 3.8347C74.3686 4.2005 73.998 4.4572 73.5103 4.6048L75.2237 7.63704H73.9627L72.3455 4.72993H71.1326V7.63704H70.0063ZM72.6343 1.49555H71.1326V3.78657H72.6343C73.0386 3.78657 73.3434 3.66946 73.5488 3.43522C73.7541 3.20098 73.8568 2.93626 73.8568 2.64106C73.8568 2.34586 73.7541 2.08114 73.5488 1.8469C73.3434 1.61267 73.0386 1.49555 72.6343 1.49555Z" fill="black"/>
<path d="M81.2697 7.73287C80.8462 7.73287 80.482 7.67832 80.1771 7.56923C79.8723 7.46013 79.6204 7.32056 79.4215 7.1505C79.2226 6.98043 79.0637 6.79914 78.945 6.60662C78.8263 6.41409 78.738 6.2328 78.6803 6.06274C78.6225 5.89268 78.584 5.7531 78.5648 5.644C78.5455 5.5349 78.5359 5.48036 78.5359 5.48036H79.6814C79.6814 5.48036 79.691 5.52367 79.7103 5.61031C79.7295 5.69694 79.768 5.80283 79.8258 5.92797C79.8835 6.05311 79.9718 6.17825 80.0905 6.30339C80.2092 6.42853 80.3665 6.53442 80.5622 6.62105C80.7579 6.70769 81.0066 6.751 81.3082 6.751C81.7574 6.751 82.1088 6.64512 82.3623 6.43334C82.6158 6.22157 82.7425 5.95204 82.7425 5.62475C82.7425 5.34238 82.6479 5.12258 82.4586 4.96536C82.2692 4.80813 81.9917 4.6878 81.6259 4.60437L80.6825 4.38297C80.3296 4.30596 80.0039 4.19205 79.7055 4.04124C79.4071 3.89043 79.1664 3.68668 78.9835 3.42998C78.8006 3.17329 78.7092 2.8492 78.7092 2.45774C78.7092 2.03418 78.8134 1.67 79.022 1.36517C79.2306 1.06034 79.5194 0.826104 79.8884 0.662459C80.2574 0.498814 80.6793 0.416992 81.1542 0.416992C81.6163 0.416992 81.9981 0.485976 82.2997 0.623951C82.6013 0.761926 82.842 0.930388 83.0217 1.12933C83.2014 1.32827 83.3345 1.52881 83.4212 1.73096C83.5078 1.93311 83.564 2.10317 83.5896 2.24115C83.6153 2.37912 83.6281 2.44811 83.6281 2.44811H82.5307C82.5307 2.44811 82.5179 2.39517 82.4922 2.28928C82.4666 2.1834 82.4072 2.05986 82.3142 1.91867C82.2211 1.77749 82.0799 1.65396 81.8906 1.54807C81.7013 1.44218 81.4462 1.38923 81.1253 1.38923C80.6825 1.38923 80.352 1.49191 80.1338 1.69727C79.9156 1.90263 79.8065 2.13045 79.8065 2.38073C79.8065 2.62459 79.8996 2.81872 80.0857 2.96311C80.2718 3.10751 80.5221 3.215 80.8365 3.28559L81.8473 3.52624C82.2195 3.60967 82.558 3.73481 82.8628 3.90167C83.1677 4.06852 83.4099 4.28831 83.5896 4.56105C83.7693 4.83379 83.8592 5.1659 83.8592 5.55736C83.8592 5.95524 83.7613 6.31943 83.5656 6.64993C83.3698 6.98043 83.0794 7.24354 82.6944 7.43928C82.3093 7.63501 81.8345 7.73287 81.2697 7.73287Z" fill="black"/>
<path d="M84.4458 7.63704L86.9293 0.513672H88.3733L90.8665 7.63704H89.6824L89.1338 6.03909H86.1785L85.6298 7.63704H84.4458ZM86.5154 5.03797H88.7968L87.6609 1.71694L86.5154 5.03797Z" fill="black"/>
<path d="M91.9832 7.63704V0.513672H93.1094V6.65517H96.7096V7.63704H91.9832Z" fill="black"/>
<path d="M100.695 7.73287C100.124 7.73287 99.6206 7.62859 99.1842 7.42003C98.7478 7.21146 98.382 6.9323 98.0868 6.58255C97.7916 6.2328 97.5702 5.83973 97.4226 5.40335C97.275 4.96696 97.2012 4.52095 97.2012 4.06531C97.2012 3.60967 97.275 3.16526 97.4226 2.73208C97.5702 2.2989 97.7916 1.90905 98.0868 1.5625C98.382 1.21596 98.7478 0.938413 99.1842 0.729846C99.6206 0.521279 100.124 0.416992 100.695 0.416992C101.273 0.416992 101.78 0.521279 102.216 0.729846C102.653 0.938413 103.019 1.21596 103.314 1.5625C103.609 1.90905 103.83 2.2989 103.978 2.73208C104.126 3.16526 104.199 3.60967 104.199 4.06531C104.199 4.52095 104.126 4.96696 103.978 5.40335C103.83 5.83973 103.609 6.2328 103.314 6.58255C103.019 6.9323 102.653 7.21146 102.216 7.42003C101.78 7.62859 101.273 7.73287 100.695 7.73287ZM100.695 6.70288C101.209 6.70288 101.639 6.57613 101.985 6.32264C102.332 6.06915 102.595 5.74187 102.775 5.34078C102.954 4.93968 103.044 4.51453 103.044 4.06531C103.044 3.7316 102.993 3.40912 102.89 3.09788C102.788 2.78663 102.638 2.50587 102.443 2.25559C102.247 2.00531 102.003 1.80797 101.711 1.66358C101.419 1.51918 101.081 1.44699 100.695 1.44699C100.317 1.44699 99.9815 1.51918 99.6895 1.66358C99.3976 1.80797 99.1537 2.00531 98.958 2.25559C98.7622 2.50587 98.613 2.78663 98.5103 3.09788C98.4077 3.40912 98.3563 3.7316 98.3563 4.06531C98.3563 4.51453 98.4462 4.93968 98.6258 5.34078C98.8055 5.74187 99.0687 6.06915 99.4152 6.32264C99.7617 6.57613 100.189 6.70288 100.695 6.70288Z" fill="black"/>
<path d="M105.411 7.63704V0.513672H106.432L109.926 5.63479V0.513672H111.052V7.63704H110.022L106.528 2.56405V7.63704H105.411Z" fill="black"/>
<path d="M117.204 7.73287C116.78 7.73287 116.416 7.67832 116.111 7.56923C115.806 7.46013 115.555 7.32056 115.356 7.1505C115.157 6.98043 114.998 6.79914 114.879 6.60662C114.76 6.41409 114.672 6.2328 114.614 6.06274C114.557 5.89268 114.518 5.7531 114.499 5.644C114.48 5.5349 114.47 5.48036 114.47 5.48036H115.615C115.615 5.48036 115.625 5.52367 115.644 5.61031C115.664 5.69694 115.702 5.80283 115.76 5.92797C115.818 6.05311 115.906 6.17825 116.025 6.30339C116.143 6.42853 116.301 6.53442 116.496 6.62105C116.692 6.70769 116.941 6.751 117.242 6.751C117.692 6.751 118.043 6.64512 118.296 6.43334C118.55 6.22157 118.677 5.95204 118.677 5.62475C118.677 5.34238 118.582 5.12258 118.393 4.96536C118.203 4.80813 117.926 4.6878 117.56 4.60437L116.617 4.38297C116.264 4.30596 115.938 4.19205 115.64 4.04124C115.341 3.89043 115.1 3.68668 114.918 3.42998C114.735 3.17329 114.643 2.8492 114.643 2.45774C114.643 2.03418 114.748 1.67 114.956 1.36517C115.165 1.06034 115.453 0.826104 115.822 0.662459C116.191 0.498814 116.613 0.416992 117.088 0.416992C117.55 0.416992 117.932 0.485976 118.234 0.623951C118.535 0.761926 118.776 0.930388 118.956 1.12933C119.135 1.32827 119.269 1.52881 119.355 1.73096C119.442 1.93311 119.498 2.10317 119.524 2.24115C119.549 2.37912 119.562 2.44811 119.562 2.44811H118.465C118.465 2.44811 118.452 2.39517 118.426 2.28928C118.401 2.1834 118.341 2.05986 118.248 1.91867C118.155 1.77749 118.014 1.65396 117.825 1.54807C117.635 1.44218 117.38 1.38923 117.059 1.38923C116.617 1.38923 116.286 1.49191 116.068 1.69727C115.85 1.90263 115.741 2.13045 115.741 2.38073C115.741 2.62459 115.834 2.81872 116.02 2.96311C116.206 3.10751 116.456 3.215 116.771 3.28559L117.781 3.52624C118.154 3.60967 118.492 3.73481 118.797 3.90167C119.102 4.06852 119.344 4.28831 119.524 4.56105C119.703 4.83379 119.793 5.1659 119.793 5.55736C119.793 5.95524 119.695 6.31943 119.5 6.64993C119.304 6.98043 119.014 7.24354 118.628 7.43928C118.243 7.63501 117.769 7.73287 117.204 7.73287Z" fill="black"/>
<path d="M123.711 7.7333C123.165 7.7333 122.684 7.62902 122.267 7.42045C121.85 7.21189 121.524 6.90705 121.29 6.50596C121.055 6.10487 120.938 5.61233 120.938 5.02835V0.513672H122.065V5.02835C122.065 5.4904 122.199 5.88027 122.469 6.19793C122.738 6.5156 123.152 6.67442 123.711 6.67442C124.275 6.67442 124.692 6.5156 124.962 6.19793C125.232 5.88027 125.366 5.4904 125.366 5.02835V0.513672H126.493V5.02835C126.493 5.61233 126.375 6.10487 126.141 6.50596C125.907 6.90705 125.58 7.21189 125.159 7.42045C124.739 7.62902 124.256 7.7333 123.711 7.7333Z" fill="black"/>
<path d="M131.133 7.73287C130.562 7.73287 130.063 7.62859 129.636 7.42003C129.21 7.21146 128.853 6.9323 128.568 6.58255C128.282 6.2328 128.067 5.84133 127.923 5.40815C127.778 4.97498 127.706 4.53057 127.706 4.07493C127.706 3.61929 127.778 3.17328 127.923 2.7369C128.067 2.30051 128.282 1.90744 128.568 1.55769C128.853 1.20794 129.21 0.93039 129.636 0.725032C130.063 0.519673 130.562 0.416992 131.133 0.416992C131.602 0.416992 132.004 0.477955 132.341 0.599887C132.678 0.721818 132.961 0.877442 133.188 1.06676C133.416 1.25607 133.599 1.45662 133.737 1.66839C133.875 1.88017 133.978 2.08232 134.045 2.27484C134.113 2.46736 134.159 2.62299 134.185 2.74171C134.21 2.86043 134.223 2.91979 134.223 2.91979H133.097C133.097 2.91979 133.086 2.87006 133.063 2.77059C133.041 2.67112 132.993 2.54758 132.919 2.39998C132.845 2.25238 132.736 2.10639 132.592 1.962C132.447 1.8176 132.258 1.69567 132.024 1.5962C131.789 1.49673 131.496 1.44699 131.143 1.44699C130.764 1.44699 130.432 1.52079 130.147 1.66839C129.861 1.81599 129.622 2.01493 129.429 2.26521C129.237 2.51549 129.094 2.79786 129.001 3.11231C128.908 3.42677 128.861 3.74764 128.861 4.07493C128.861 4.40222 128.908 4.72149 129.001 5.03274C129.094 5.34398 129.237 5.62635 129.429 5.87984C129.622 6.13333 129.861 6.33387 130.147 6.48147C130.432 6.62907 130.764 6.70288 131.143 6.70288C131.496 6.70288 131.789 6.65314 132.024 6.55367C132.258 6.4542 132.447 6.33066 132.592 6.18306C132.736 6.03546 132.845 5.88786 132.919 5.74026C132.993 5.59266 133.041 5.46912 133.063 5.36965C133.086 5.27018 133.097 5.22044 133.097 5.22044H134.223C134.223 5.22044 134.21 5.28142 134.185 5.40335C134.159 5.52528 134.113 5.6809 134.045 5.87022C133.978 6.05953 133.875 6.26167 133.737 6.47666C133.599 6.69164 133.416 6.89379 133.188 7.08311C132.961 7.27242 132.678 7.42805 132.341 7.54998C132.004 7.67191 131.602 7.73287 131.133 7.73287Z" fill="black"/>
<path d="M138.613 7.73287C138.042 7.73287 137.543 7.62859 137.116 7.42003C136.689 7.21146 136.333 6.9323 136.047 6.58255C135.762 6.2328 135.547 5.84133 135.402 5.40815C135.258 4.97498 135.186 4.53057 135.186 4.07493C135.186 3.61929 135.258 3.17328 135.402 2.7369C135.547 2.30051 135.762 1.90744 136.047 1.55769C136.333 1.20794 136.689 0.93039 137.116 0.725032C137.543 0.519673 138.042 0.416992 138.613 0.416992C139.081 0.416992 139.484 0.477955 139.821 0.599887C140.158 0.721818 140.44 0.877442 140.668 1.06676C140.896 1.25607 141.079 1.45662 141.217 1.66839C141.355 1.88017 141.457 2.08232 141.525 2.27484C141.592 2.46736 141.639 2.62299 141.664 2.74171C141.69 2.86043 141.703 2.91979 141.703 2.91979H140.576C140.576 2.91979 140.565 2.87006 140.543 2.77059C140.52 2.67112 140.472 2.54758 140.398 2.39998C140.325 2.25238 140.215 2.10639 140.071 1.962C139.927 1.8176 139.737 1.69567 139.503 1.5962C139.269 1.49673 138.975 1.44699 138.622 1.44699C138.244 1.44699 137.912 1.52079 137.626 1.66839C137.34 1.81599 137.101 2.01493 136.909 2.26521C136.716 2.51549 136.574 2.79786 136.481 3.11231C136.387 3.42677 136.341 3.74764 136.341 4.07493C136.341 4.40222 136.387 4.72149 136.481 5.03274C136.574 5.34398 136.716 5.62635 136.909 5.87984C137.101 6.13333 137.34 6.33387 137.626 6.48147C137.912 6.62907 138.244 6.70288 138.622 6.70288C138.975 6.70288 139.269 6.65314 139.503 6.55367C139.737 6.4542 139.927 6.33066 140.071 6.18306C140.215 6.03546 140.325 5.88786 140.398 5.74026C140.472 5.59266 140.52 5.46912 140.543 5.36965C140.565 5.27018 140.576 5.22044 140.576 5.22044H141.703C141.703 5.22044 141.69 5.28142 141.664 5.40335C141.639 5.52528 141.592 5.6809 141.525 5.87022C141.457 6.05953 141.355 6.26167 141.217 6.47666C141.079 6.69164 140.896 6.89379 140.668 7.08311C140.44 7.27242 140.158 7.42805 139.821 7.54998C139.484 7.67191 139.081 7.73287 138.613 7.73287Z" fill="black"/>
<path d="M142.915 7.63704V0.513672H147.564V1.49555H144.041V3.52666H147.122V4.49891H144.041V6.65517H147.613V7.63704H142.915Z" fill="black"/>
<path d="M151.347 7.73287C150.924 7.73287 150.559 7.67832 150.255 7.56923C149.95 7.46013 149.698 7.32056 149.499 7.1505C149.3 6.98043 149.141 6.79914 149.022 6.60662C148.904 6.41409 148.815 6.2328 148.758 6.06274C148.7 5.89268 148.661 5.7531 148.642 5.644C148.623 5.5349 148.613 5.48036 148.613 5.48036H149.759C149.759 5.48036 149.768 5.52367 149.788 5.61031C149.807 5.69694 149.845 5.80283 149.903 5.92797C149.961 6.05311 150.049 6.17825 150.168 6.30339C150.287 6.42853 150.444 6.53442 150.64 6.62105C150.835 6.70769 151.084 6.751 151.386 6.751C151.835 6.751 152.186 6.64512 152.44 6.43334C152.693 6.22157 152.82 5.95204 152.82 5.62475C152.82 5.34238 152.725 5.12258 152.536 4.96536C152.347 4.80813 152.069 4.6878 151.703 4.60437L150.76 4.38297C150.407 4.30596 150.081 4.19205 149.783 4.04124C149.484 3.89043 149.244 3.68668 149.061 3.42998C148.878 3.17329 148.787 2.8492 148.787 2.45774C148.787 2.03418 148.891 1.67 149.099 1.36517C149.308 1.06034 149.597 0.826104 149.966 0.662459C150.335 0.498814 150.757 0.416992 151.232 0.416992C151.694 0.416992 152.076 0.485976 152.377 0.623951C152.679 0.761926 152.919 0.930388 153.099 1.12933C153.279 1.32827 153.412 1.52881 153.499 1.73096C153.585 1.93311 153.641 2.10317 153.667 2.24115C153.693 2.37912 153.706 2.44811 153.706 2.44811H152.608C152.608 2.44811 152.595 2.39517 152.57 2.28928C152.544 2.1834 152.485 2.05986 152.392 1.91867C152.299 1.77749 152.157 1.65396 151.968 1.54807C151.779 1.44218 151.524 1.38923 151.203 1.38923C150.76 1.38923 150.429 1.49191 150.211 1.69727C149.993 1.90263 149.884 2.13045 149.884 2.38073C149.884 2.62459 149.977 2.81872 150.163 2.96311C150.349 3.10751 150.599 3.215 150.914 3.28559L151.925 3.52624C152.297 3.60967 152.635 3.73481 152.94 3.90167C153.245 4.06852 153.487 4.28831 153.667 4.56105C153.847 4.83379 153.937 5.1659 153.937 5.55736C153.937 5.95524 153.839 6.31943 153.643 6.64993C153.447 6.98043 153.157 7.24354 152.772 7.43928C152.387 7.63501 151.912 7.73287 151.347 7.73287Z" fill="black"/>
<path d="M157.595 7.73287C157.171 7.73287 156.807 7.67832 156.502 7.56923C156.197 7.46013 155.945 7.32056 155.746 7.1505C155.548 6.98043 155.389 6.79914 155.27 6.60662C155.151 6.41409 155.063 6.2328 155.005 6.06274C154.947 5.89268 154.909 5.7531 154.89 5.644C154.87 5.5349 154.861 5.48036 154.861 5.48036H156.006C156.006 5.48036 156.016 5.52367 156.035 5.61031C156.054 5.69694 156.093 5.80283 156.151 5.92797C156.209 6.05311 156.297 6.17825 156.415 6.30339C156.534 6.42853 156.691 6.53442 156.887 6.62105C157.083 6.70769 157.332 6.751 157.633 6.751C158.082 6.751 158.434 6.64512 158.687 6.43334C158.941 6.22157 159.067 5.95204 159.067 5.62475C159.067 5.34238 158.973 5.12258 158.784 4.96536C158.594 4.80813 158.317 4.6878 157.951 4.60437L157.007 4.38297C156.655 4.30596 156.329 4.19205 156.03 4.04124C155.732 3.89043 155.491 3.68668 155.308 3.42998C155.126 3.17329 155.034 2.8492 155.034 2.45774C155.034 2.03418 155.138 1.67 155.347 1.36517C155.556 1.06034 155.844 0.826104 156.213 0.662459C156.582 0.498814 157.004 0.416992 157.479 0.416992C157.941 0.416992 158.323 0.485976 158.625 0.623951C158.926 0.761926 159.167 0.930388 159.347 1.12933C159.526 1.32827 159.66 1.52881 159.746 1.73096C159.833 1.93311 159.889 2.10317 159.915 2.24115C159.94 2.37912 159.953 2.44811 159.953 2.44811H158.856C158.856 2.44811 158.843 2.39517 158.817 2.28928C158.792 2.1834 158.732 2.05986 158.639 1.91867C158.546 1.77749 158.405 1.65396 158.216 1.54807C158.026 1.44218 157.771 1.38923 157.45 1.38923C157.007 1.38923 156.677 1.49191 156.459 1.69727C156.241 1.90263 156.132 2.13045 156.132 2.38073C156.132 2.62459 156.225 2.81872 156.411 2.96311C156.597 3.10751 156.847 3.215 157.162 3.28559L158.172 3.52624C158.544 3.60967 158.883 3.73481 159.188 3.90167C159.493 4.06852 159.735 4.28831 159.915 4.56105C160.094 4.83379 160.184 5.1659 160.184 5.55736C160.184 5.95524 160.086 6.31943 159.891 6.64993C159.695 6.98043 159.404 7.24354 159.019 7.43928C158.634 7.63501 158.159 7.73287 157.595 7.73287Z" fill="black"/>
</svg>
